<svg xmlns="http://www.w3.org/2000/svg" xmlns:xlink="http://www.w3.org/1999/xlink" viewBox="0 0 800 800" width="400" height="400" preserveAspectRatio="xMidYMid meet" style="width: 100%; height: 100%; transform: translate3d(0px, 0px, 0px); content-visibility: visible;" id="Rainy Day"><defs><clipPath id="__lottie_element_2"><rect width="800" height="800" x="0" y="0"/></clipPath><clipPath id="__lottie_element_4"><path d="M0,0 L1920,0 L1920,1080 L0,1080z"/></clipPath></defs><g clip-path="url(#__lottie_element_2)"><g clip-path="url(#__lottie_element_4)" transform="matrix(1,0,0,1,-560,-140)" opacity="1" style="display: block;"><g transform="matrix(-0.5838409662246704,0.8118680119514465,-0.8118680119514465,-0.5838409662246704,1276.163818359375,420.1593322753906)" opacity="1" style="display: block;"><g opacity="1" transform="matrix(1,0,0,1,182.80999755859375,182.89999389648438)"><path fill="rgb(255,234,146)" fill-opacity="1" d=" M86.46600341796875,0 C86.46600341796875,47.75299835205078 47.75299835205078,86.46600341796875 0,86.46600341796875 C-47.75400161743164,86.46600341796875 -86.46600341796875,47.75299835205078 -86.46600341796875,0 C-86.46600341796875,-47.75299835205078 -47.75400161743164,-86.46600341796875 0,-86.46600341796875 C47.75299835205078,-86.46600341796875 86.46600341796875,-47.75299835205078 86.46600341796875,0z"/></g><g opacity="1" transform="matrix(1,0,0,1,182.80999755859375,51.034000396728516)"><path fill="rgb(255,234,146)" fill-opacity="1" d=" M0.0010000000474974513,30.45599937438965 C0.0010000000474974513,30.45599937438965 0.0010000000474974513,30.45599937438965 0.0010000000474974513,30.45599937438965 C-4.484000205993652,30.45599937438965 -8.121000289916992,26.820999145507812 -8.121000289916992,22.334999084472656 C-8.121000289916992,22.334999084472656 -8.121000289916992,-22.336000442504883 -8.121000289916992,-22.336000442504883 C-8.121000289916992,-26.820999145507812 -4.484000205993652,-30.45599937438965 0.0010000000474974513,-30.45599937438965 C4.486000061035156,-30.45599937438965 8.121000289916992,-26.820999145507812 8.121000289916992,-22.336000442504883 C8.121000289916992,-22.336000442504883 8.121000289916992,22.334999084472656 8.121000289916992,22.334999084472656 C8.121000289916992,26.820999145507812 4.486000061035156,30.45599937438965 0.0010000000474974513,30.45599937438965z"/></g><g opacity="1" transform="matrix(1,0,0,1,182.80999755859375,314.7640075683594)"><path fill="rgb(255,234,146)" fill-opacity="1" d=" M0.0010000000474974513,30.45599937438965 C0.0010000000474974513,30.45599937438965 0.0010000000474974513,30.45599937438965 0.0010000000474974513,30.45599937438965 C-4.484000205993652,30.45599937438965 -8.121000289916992,26.820999145507812 -8.121000289916992,22.336000442504883 C-8.121000289916992,22.336000442504883 -8.121000289916992,-22.333999633789062 -8.121000289916992,-22.333999633789062 C-8.121000289916992,-26.819000244140625 -4.484000205993652,-30.45599937438965 0.0010000000474974513,-30.45599937438965 C4.486000061035156,-30.45599937438965 8.121000289916992,-26.819000244140625 8.121000289916992,-22.333999633789062 C8.121000289916992,-22.333999633789062 8.121000289916992,22.336000442504883 8.121000289916992,22.336000442504883 C8.121000289916992,26.820999145507812 4.486000061035156,30.45599937438965 0.0010000000474974513,30.45599937438965z"/></g><g opacity="1" transform="matrix(1,0,0,1,314.67498779296875,182.89999389648438)"><path fill="rgb(255,234,146)" fill-opacity="1" d=" M-30.45599937438965,0 C-30.45599937438965,0 -30.45599937438965,0 -30.45599937438965,0 C-30.45599937438965,-4.485000133514404 -26.81999969482422,-8.121999740600586 -22.334999084472656,-8.121999740600586 C-22.334999084472656,-8.121999740600586 22.336000442504883,-8.121999740600586 22.336000442504883,-8.121999740600586 C26.820999145507812,-8.121999740600586 30.45599937438965,-4.485000133514404 30.45599937438965,0 C30.45599937438965,4.485000133514404 26.820999145507812,8.121999740600586 22.336000442504883,8.121999740600586 C22.336000442504883,8.121999740600586 -22.334999084472656,8.121999740600586 -22.334999084472656,8.121999740600586 C-26.81999969482422,8.121999740600586 -30.45599937438965,4.485000133514404 -30.45599937438965,0z"/></g><g opacity="1" transform="matrix(1,0,0,1,50.94499969482422,182.89999389648438)"><path fill="rgb(255,234,146)" fill-opacity="1" d=" M-30.45599937438965,0 C-30.45599937438965,0 -30.45599937438965,0 -30.45599937438965,0 C-30.45599937438965,-4.485000133514404 -26.820999145507812,-8.121999740600586 -22.334999084472656,-8.121999740600586 C-22.334999084472656,-8.121999740600586 22.333999633789062,-8.121999740600586 22.333999633789062,-8.121999740600586 C26.81999969482422,-8.121999740600586 30.45599937438965,-4.485000133514404 30.45599937438965,0 C30.45599937438965,4.485000133514404 26.81999969482422,8.121999740600586 22.333999633789062,8.121999740600586 C22.333999633789062,8.121999740600586 -22.334999084472656,8.121999740600586 -22.334999084472656,8.121999740600586 C-26.820999145507812,8.121999740600586 -30.45599937438965,4.485000133514404 -30.45599937438965,0z"/></g><g opacity="1" transform="matrix(1,0,0,1,276.0530090332031,276.14300537109375)"><path fill="rgb(255,234,146)" fill-opacity="1" d=" M-21.53499984741211,-21.53700065612793 C-21.53499984741211,-21.53700065612793 -21.53499984741211,-21.53700065612793 -21.53499984741211,-21.53700065612793 C-18.36400032043457,-24.70800018310547 -13.222000122070312,-24.70800018310547 -10.050000190734863,-21.53700065612793 C-10.050000190734863,-21.53700065612793 21.535999298095703,10.050000190734863 21.535999298095703,10.050000190734863 C24.70800018310547,13.222000122070312 24.70800018310547,18.364999771118164 21.535999298095703,21.535999298095703 C18.36400032043457,24.70800018310547 13.222999572753906,24.70800018310547 10.050999641418457,21.535999298095703 C10.050999641418457,21.535999298095703 -21.53499984741211,-10.050000190734863 -21.53499984741211,-10.050000190734863 C-24.707000732421875,-13.222000122070312 -24.707000732421875,-18.364999771118164 -21.53499984741211,-21.53700065612793z"/></g><g opacity="1" transform="matrix(1,0,0,1,89.56700134277344,89.65699768066406)"><path fill="rgb(255,234,146)" fill-opacity="1" d=" M-21.535999298095703,-21.535999298095703 C-21.535999298095703,-21.535999298095703 -21.535999298095703,-21.535999298095703 -21.535999298095703,-21.535999298095703 C-18.364999771118164,-24.70800018310547 -13.222000122070312,-24.70800018310547 -10.050000190734863,-21.535999298095703 C-10.050000190734863,-21.535999298095703 21.535999298095703,10.050000190734863 21.535999298095703,10.050000190734863 C24.70800018310547,13.222000122070312 24.70800018310547,18.36400032043457 21.535999298095703,21.535999298095703 C18.36400032043457,24.70800018310547 13.222000122070312,24.70800018310547 10.050000190734863,21.535999298095703 C10.050000190734863,21.535999298095703 -21.535999298095703,-10.050000190734863 -21.535999298095703,-10.050000190734863 C-24.70800018310547,-13.222000122070312 -24.70800018310547,-18.36400032043457 -21.535999298095703,-21.535999298095703z"/></g><g opacity="1" transform="matrix(1,0,0,1,89.56700134277344,276.14300537109375)"><path fill="rgb(255,234,146)" fill-opacity="1" d=" M21.535999298095703,-21.53700065612793 C21.535999298095703,-21.53700065612793 21.535999298095703,-21.53700065612793 21.535999298095703,-21.53700065612793 C24.70800018310547,-18.364999771118164 24.70800018310547,-13.222000122070312 21.535999298095703,-10.050000190734863 C21.535999298095703,-10.050000190734863 -10.050000190734863,21.535999298095703 -10.050000190734863,21.535999298095703 C-13.222000122070312,24.70800018310547 -18.36400032043457,24.70800018310547 -21.535999298095703,21.535999298095703 C-24.70800018310547,18.364999771118164 -24.70800018310547,13.222000122070312 -21.535999298095703,10.050000190734863 C-21.535999298095703,10.050000190734863 10.050000190734863,-21.53700065612793 10.050000190734863,-21.53700065612793 C13.222000122070312,-24.70800018310547 18.36400032043457,-24.70800018310547 21.535999298095703,-21.53700065612793z"/></g><g opacity="1" transform="matrix(1,0,0,1,276.0530090332031,89.65699768066406)"><path fill="rgb(255,234,146)" fill-opacity="1" d=" M21.535999298095703,-21.535999298095703 C21.535999298095703,-21.535999298095703 21.535999298095703,-21.535999298095703 21.535999298095703,-21.535999298095703 C24.70800018310547,-18.36400032043457 24.70800018310547,-13.222000122070312 21.535999298095703,-10.050000190734863 C21.535999298095703,-10.050000190734863 -10.050999641418457,21.535999298095703 -10.050999641418457,21.535999298095703 C-13.222999572753906,24.70800018310547 -18.364999771118164,24.70800018310547 -21.535999298095703,21.535999298095703 C-24.70800018310547,18.36400032043457 -24.70800018310547,13.222000122070312 -21.535999298095703,10.050000190734863 C-21.535999298095703,10.050000190734863 10.050000190734863,-21.535999298095703 10.050000190734863,-21.535999298095703 C13.222000122070312,-24.70800018310547 18.36400032043457,-24.70800018310547 21.535999298095703,-21.535999298095703z"/></g><g opacity="1" transform="matrix(1,0,0,1,182.80999755859375,51.034000396728516)"><path stroke-linecap="round" stroke-linejoin="round" fill-opacity="0" stroke="rgb(55,97,204)" stroke-opacity="1" stroke-width="8" d=" M0.0010000000474974513,30.45599937438965 C0.0010000000474974513,30.45599937438965 0.0010000000474974513,30.45599937438965 0.0010000000474974513,30.45599937438965 C-4.484000205993652,30.45599937438965 -8.121000289916992,26.820999145507812 -8.121000289916992,22.334999084472656 C-8.121000289916992,22.334999084472656 -8.121000289916992,-22.336000442504883 -8.121000289916992,-22.336000442504883 C-8.121000289916992,-26.820999145507812 -4.484000205993652,-30.45599937438965 0.0010000000474974513,-30.45599937438965 C4.486000061035156,-30.45599937438965 8.121000289916992,-26.820999145507812 8.121000289916992,-22.336000442504883 C8.121000289916992,-22.336000442504883 8.121000289916992,22.334999084472656 8.121000289916992,22.334999084472656 C8.121000289916992,26.820999145507812 4.486000061035156,30.45599937438965 0.0010000000474974513,30.45599937438965z"/></g><g opacity="1" transform="matrix(1,0,0,1,182.80999755859375,314.7640075683594)"><path stroke-linecap="round" stroke-linejoin="round" fill-opacity="0" stroke="rgb(55,97,204)" stroke-opacity="1" stroke-width="8" d=" M0.0010000000474974513,30.45599937438965 C0.0010000000474974513,30.45599937438965 0.0010000000474974513,30.45599937438965 0.0010000000474974513,30.45599937438965 C-4.484000205993652,30.45599937438965 -8.121000289916992,26.820999145507812 -8.121000289916992,22.336000442504883 C-8.121000289916992,22.336000442504883 -8.121000289916992,-22.333999633789062 -8.121000289916992,-22.333999633789062 C-8.121000289916992,-26.819000244140625 -4.484000205993652,-30.45599937438965 0.0010000000474974513,-30.45599937438965 C4.486000061035156,-30.45599937438965 8.121000289916992,-26.819000244140625 8.121000289916992,-22.333999633789062 C8.121000289916992,-22.333999633789062 8.121000289916992,22.336000442504883 8.121000289916992,22.336000442504883 C8.121000289916992,26.820999145507812 4.486000061035156,30.45599937438965 0.0010000000474974513,30.45599937438965z"/></g><g opacity="1" transform="matrix(1,0,0,1,314.67498779296875,182.89999389648438)"><path stroke-linecap="round" stroke-linejoin="round" fill-opacity="0" stroke="rgb(55,97,204)" stroke-opacity="1" stroke-width="8" d=" M-30.45599937438965,0 C-30.45599937438965,0 -30.45599937438965,0 -30.45599937438965,0 C-30.45599937438965,-4.485000133514404 -26.81999969482422,-8.121999740600586 -22.334999084472656,-8.121999740600586 C-22.334999084472656,-8.121999740600586 22.336000442504883,-8.121999740600586 22.336000442504883,-8.121999740600586 C26.820999145507812,-8.121999740600586 30.45599937438965,-4.485000133514404 30.45599937438965,0 C30.45599937438965,4.485000133514404 26.820999145507812,8.121999740600586 22.336000442504883,8.121999740600586 C22.336000442504883,8.121999740600586 -22.334999084472656,8.121999740600586 -22.334999084472656,8.121999740600586 C-26.81999969482422,8.121999740600586 -30.45599937438965,4.485000133514404 -30.45599937438965,0z"/></g><g opacity="1" transform="matrix(1,0,0,1,50.94499969482422,182.89999389648438)"><path stroke-linecap="round" stroke-linejoin="round" fill-opacity="0" stroke="rgb(55,97,204)" stroke-opacity="1" stroke-width="8" d=" M-30.45599937438965,0 C-30.45599937438965,0 -30.45599937438965,0 -30.45599937438965,0 C-30.45599937438965,-4.485000133514404 -26.820999145507812,-8.121999740600586 -22.334999084472656,-8.121999740600586 C-22.334999084472656,-8.121999740600586 22.333999633789062,-8.121999740600586 22.333999633789062,-8.121999740600586 C26.81999969482422,-8.121999740600586 30.45599937438965,-4.485000133514404 30.45599937438965,0 C30.45599937438965,4.485000133514404 26.81999969482422,8.121999740600586 22.333999633789062,8.121999740600586 C22.333999633789062,8.121999740600586 -22.334999084472656,8.121999740600586 -22.334999084472656,8.121999740600586 C-26.820999145507812,8.121999740600586 -30.45599937438965,4.485000133514404 -30.45599937438965,0z"/></g><g opacity="1" transform="matrix(1,0,0,1,276.0530090332031,276.14300537109375)"><path stroke-linecap="round" stroke-linejoin="round" fill-opacity="0" stroke="rgb(55,97,204)" stroke-opacity="1" stroke-width="8" d=" M-21.53499984741211,-21.53700065612793 C-21.53499984741211,-21.53700065612793 -21.53499984741211,-21.53700065612793 -21.53499984741211,-21.53700065612793 C-18.36400032043457,-24.70800018310547 -13.222000122070312,-24.70800018310547 -10.050000190734863,-21.53700065612793 C-10.050000190734863,-21.53700065612793 21.535999298095703,10.050000190734863 21.535999298095703,10.050000190734863 C24.70800018310547,13.222000122070312 24.70800018310547,18.364999771118164 21.535999298095703,21.535999298095703 C18.36400032043457,24.70800018310547 13.222999572753906,24.70800018310547 10.050999641418457,21.535999298095703 C10.050999641418457,21.535999298095703 -21.53499984741211,-10.050000190734863 -21.53499984741211,-10.050000190734863 C-24.707000732421875,-13.222000122070312 -24.707000732421875,-18.364999771118164 -21.53499984741211,-21.53700065612793z"/></g><g opacity="1" transform="matrix(1,0,0,1,89.56700134277344,89.65699768066406)"><path stroke-linecap="round" stroke-linejoin="round" fill-opacity="0" stroke="rgb(55,97,204)" stroke-opacity="1" stroke-width="8" d=" M-21.535999298095703,-21.535999298095703 C-21.535999298095703,-21.535999298095703 -21.535999298095703,-21.535999298095703 -21.535999298095703,-21.535999298095703 C-18.364999771118164,-24.70800018310547 -13.222000122070312,-24.70800018310547 -10.050000190734863,-21.535999298095703 C-10.050000190734863,-21.535999298095703 21.535999298095703,10.050000190734863 21.535999298095703,10.050000190734863 C24.70800018310547,13.222000122070312 24.70800018310547,18.36400032043457 21.535999298095703,21.535999298095703 C18.36400032043457,24.70800018310547 13.222000122070312,24.70800018310547 10.050000190734863,21.535999298095703 C10.050000190734863,21.535999298095703 -21.535999298095703,-10.050000190734863 -21.535999298095703,-10.050000190734863 C-24.70800018310547,-13.222000122070312 -24.70800018310547,-18.36400032043457 -21.535999298095703,-21.535999298095703z"/></g><g opacity="1" transform="matrix(1,0,0,1,89.56700134277344,276.14300537109375)"><path stroke-linecap="round" stroke-linejoin="round" fill-opacity="0" stroke="rgb(55,97,204)" stroke-opacity="1" stroke-width="8" d=" M21.535999298095703,-21.53700065612793 C21.535999298095703,-21.53700065612793 21.535999298095703,-21.53700065612793 21.535999298095703,-21.53700065612793 C24.70800018310547,-18.364999771118164 24.70800018310547,-13.222000122070312 21.535999298095703,-10.050000190734863 C21.535999298095703,-10.050000190734863 -10.050000190734863,21.535999298095703 -10.050000190734863,21.535999298095703 C-13.222000122070312,24.70800018310547 -18.36400032043457,24.70800018310547 -21.535999298095703,21.535999298095703 C-24.70800018310547,18.364999771118164 -24.70800018310547,13.222000122070312 -21.535999298095703,10.050000190734863 C-21.535999298095703,10.050000190734863 10.050000190734863,-21.53700065612793 10.050000190734863,-21.53700065612793 C13.222000122070312,-24.70800018310547 18.36400032043457,-24.70800018310547 21.535999298095703,-21.53700065612793z"/></g><g opacity="1" transform="matrix(1,0,0,1,276.0530090332031,89.65699768066406)"><path stroke-linecap="round" stroke-linejoin="round" fill-opacity="0" stroke="rgb(55,97,204)" stroke-opacity="1" stroke-width="8" d=" M21.535999298095703,-21.535999298095703 C21.535999298095703,-21.535999298095703 21.535999298095703,-21.535999298095703 21.535999298095703,-21.535999298095703 C24.70800018310547,-18.36400032043457 24.70800018310547,-13.222000122070312 21.535999298095703,-10.050000190734863 C21.535999298095703,-10.050000190734863 -10.050999641418457,21.535999298095703 -10.050999641418457,21.535999298095703 C-13.222999572753906,24.70800018310547 -18.364999771118164,24.70800018310547 -21.535999298095703,21.535999298095703 C-24.70800018310547,18.36400032043457 -24.70800018310547,13.222000122070312 -21.535999298095703,10.050000190734863 C-21.535999298095703,10.050000190734863 10.050000190734863,-21.535999298095703 10.050000190734863,-21.535999298095703 C13.222000122070312,-24.70800018310547 18.36400032043457,-24.70800018310547 21.535999298095703,-21.535999298095703z"/></g><g opacity="1" transform="matrix(1,0,0,1,182.80999755859375,182.89999389648438)"><path stroke-linecap="round" stroke-linejoin="round" fill-opacity="0" stroke="rgb(55,97,204)" stroke-opacity="1" stroke-width="8" d=" M86.46600341796875,0 C86.46600341796875,47.75299835205078 47.75299835205078,86.46600341796875 0,86.46600341796875 C-47.75400161743164,86.46600341796875 -86.46600341796875,47.75299835205078 -86.46600341796875,0 C-86.46600341796875,-47.75299835205078 -47.75400161743164,-86.46600341796875 0,-86.46600341796875 C47.75299835205078,-86.46600341796875 86.46600341796875,-47.75299835205078 86.46600341796875,0z"/></g></g><g transform="matrix(1,0,0,1,768.781982421875,660.261962890625)" opacity="1" style="display: block;"><g opacity="1" transform="matrix(1,0,0,1,0,0)"><path stroke-linecap="round" stroke-linejoin="miter" fill-opacity="0" stroke-miterlimit="10" stroke-dasharray=" 40 33" stroke-dashoffset="-284.96795654296875" stroke="rgb(164,201,255)" stroke-opacity="1" stroke-width="12" d=" M294,6 C294,6 294.27099609375,114.9990005493164 294.27099609375,114.9990005493164"/></g><g opacity="1" transform="matrix(1,0,0,1,4,0)"><path stroke-linecap="round" stroke-linejoin="miter" fill-opacity="0" stroke-miterlimit="10" stroke-dasharray=" 40 33" stroke-dashoffset="-250.52670288085938" stroke="rgb(164,201,255)" stroke-opacity="1" stroke-width="12" d=" M246,6 C246,6 246.27099609375,114.9990005493164 246.27099609375,114.9990005493164"/></g><g opacity="1" transform="matrix(1,0,0,1,8,0)"><path stroke-linecap="round" stroke-linejoin="miter" fill-opacity="0" stroke-miterlimit="10" stroke-dasharray=" 40 33" stroke-dashoffset="-284.96795654296875" stroke="rgb(164,201,255)" stroke-opacity="1" stroke-width="12" d=" M198,6 C198,6 198.27099609375,114.9990005493164 198.27099609375,114.9990005493164"/></g><g opacity="1" transform="matrix(1,0,0,1,12,0)"><path stroke-linecap="round" stroke-linejoin="miter" fill-opacity="0" stroke-miterlimit="10" stroke-dasharray=" 40 33" stroke-dashoffset="-250.52670288085938" stroke="rgb(164,201,255)" stroke-opacity="1" stroke-width="12" d=" M150,6 C150,6 150.27099609375,114.9990005493164 150.27099609375,114.9990005493164"/></g><g opacity="1" transform="matrix(1,0,0,1,16,0)"><path stroke-linecap="round" stroke-linejoin="miter" fill-opacity="0" stroke-miterlimit="10" stroke-dasharray=" 40 33" stroke-dashoffset="-284.96795654296875" stroke="rgb(164,201,255)" stroke-opacity="1" stroke-width="12" d=" M102,6 C102,6 102.27100372314453,114.9990005493164 102.27100372314453,114.9990005493164"/></g><g opacity="1" transform="matrix(1,0,0,1,20,0)"><path stroke-linecap="round" stroke-linejoin="miter" fill-opacity="0" stroke-miterlimit="10" stroke-dasharray=" 40 33" stroke-dashoffset="-250.52670288085938" stroke="rgb(164,201,255)" stroke-opacity="1" stroke-width="12" d=" M54,6 C54,6 54.270999908447266,114.9990005493164 54.270999908447266,114.9990005493164"/></g><g opacity="1" transform="matrix(1,0,0,1,24,0)"><path stroke-linecap="round" stroke-linejoin="miter" fill-opacity="0" stroke-miterlimit="10" stroke-dasharray=" 40 33" stroke-dashoffset="-284.96795654296875" stroke="rgb(164,201,255)" stroke-opacity="1" stroke-width="12" d=" M6,6 C6,6 6.270999908447266,114.9990005493164 6.270999908447266,114.9990005493164"/></g></g><g transform="matrix(1,0,0,1,744.814697265625,385)" opacity="1" style="display: block;"><g opacity="1" transform="matrix(1,0,0,1,206.01199340820312,142.1840057373047)"><path fill="rgb(223,235,251)" fill-opacity="1" d=" M120.58100128173828,-7.716000080108643 C120.58100128173828,-7.716000080108643 118.29399871826172,-7.716000080108643 118.29399871826172,-7.716000080108643 C116.5009994506836,-43.893001556396484 86.60299682617188,-72.67500305175781 49.98099899291992,-72.67500305175781 C42.09199905395508,-72.67500305175781 34.520999908447266,-71.322998046875 27.469999313354492,-68.86499786376953 C18.73699951171875,-99.20600128173828 -9.208999633789062,-121.41000366210938 -42.35900115966797,-121.41000366210938 C-82.49600219726562,-121.41000366210938 -115.03399658203125,-88.87200164794922 -115.03399658203125,-48.73500061035156 C-115.03399658203125,-45.888999938964844 -114.85299682617188,-43.0880012512207 -114.53399658203125,-40.32699966430664 C-154.37399291992188,-35.12300109863281 -185.1439971923828,-1.0729999542236328 -185.1439971923828,40.185001373291016 C-185.1439971923828,85.04399871826172 -148.7779998779297,121.41000366210938 -103.91899871826172,121.41000366210938 C-103.91899871826172,121.41000366210938 120.58100128173828,121.41000366210938 120.58100128173828,121.41000366210938 C156.23800659179688,121.41000366210938 185.1439971923828,92.50399780273438 185.1439971923828,56.84700012207031 C185.1439971923828,21.190000534057617 156.23800659179688,-7.716000080108643 120.58100128173828,-7.716000080108643z"/><path stroke-linecap="round" stroke-linejoin="round" fill-opacity="0" stroke="rgb(55,97,204)" stroke-opacity="1" stroke-width="8" d=" M120.58100128173828,-7.716000080108643 C120.58100128173828,-7.716000080108643 118.29399871826172,-7.716000080108643 118.29399871826172,-7.716000080108643 C116.5009994506836,-43.893001556396484 86.60299682617188,-72.67500305175781 49.98099899291992,-72.67500305175781 C42.09199905395508,-72.67500305175781 34.520999908447266,-71.322998046875 27.469999313354492,-68.86499786376953 C18.73699951171875,-99.20600128173828 -9.208999633789062,-121.41000366210938 -42.35900115966797,-121.41000366210938 C-82.49600219726562,-121.41000366210938 -115.03399658203125,-88.87200164794922 -115.03399658203125,-48.73500061035156 C-115.03399658203125,-45.888999938964844 -114.85299682617188,-43.0880012512207 -114.53399658203125,-40.32699966430664 C-154.37399291992188,-35.12300109863281 -185.1439971923828,-1.0729999542236328 -185.1439971923828,40.185001373291016 C-185.1439971923828,85.04399871826172 -148.7779998779297,121.41000366210938 -103.91899871826172,121.41000366210938 C-103.91899871826172,121.41000366210938 120.58100128173828,121.41000366210938 120.58100128173828,121.41000366210938 C156.23800659179688,121.41000366210938 185.1439971923828,92.50399780273438 185.1439971923828,56.84700012207031 C185.1439971923828,21.190000534057617 156.23800659179688,-7.716000080108643 120.58100128173828,-7.716000080108643z"/></g></g></g></g></svg>