<svg xmlns="http://www.w3.org/2000/svg" xmlns:xlink="http://www.w3.org/1999/xlink" viewBox="0 0 800 800" width="400" height="400" preserveAspectRatio="xMidYMid meet" style="width: 100%; height: 100%; transform: translate3d(0px, 0px, 0px); content-visibility: visible;" id="Rainy Night"><defs><clipPath id="__lottie_element_2"><rect width="800" height="800" x="0" y="0"/></clipPath><clipPath id="__lottie_element_4"><path d="M0,0 L1920,0 L1920,1080 L0,1080z"/></clipPath></defs><g clip-path="url(#__lottie_element_2)"><g clip-path="url(#__lottie_element_4)" transform="matrix(1,0,0,1,-520,-244)" opacity="1" style="display: block;"><g transform="matrix(1,0,0,1,853.8223876953125,353.7623291015625)" opacity="1" style="display: block;"><g opacity="1" transform="matrix(1,0,0,1,154.25100708007812,154.08299255371094)"><path fill="rgb(255,234,146)" fill-opacity="1" d=" M-8.869000434875488,9.015000343322754 C-45.80500030517578,-27.92099952697754 -56.59199905395508,-81.09600067138672 -41.2400016784668,-127.52400207519531 C-40.1349983215332,-130.86900329589844 -43.57400131225586,-133.93299865722656 -46.72700119018555,-132.36099243164062 C-60.47999954223633,-125.50800323486328 -73.2979965209961,-116.13999938964844 -84.48999786376953,-104.24700164794922 C-134.0850067138672,-51.551998138427734 -132.3470001220703,31.945999145507812 -80.70800018310547,82.63899993896484 C-28.457000732421875,133.9320068359375 55.483001708984375,133.63600158691406 107.36799621582031,81.75 C117.86499786376953,71.25299835205078 126.24700164794922,59.441001892089844 132.52099609375,46.84700012207031 C134.08599853515625,43.70199966430664 131.01800537109375,40.279998779296875 127.68199920654297,41.382999420166016 C81.25199890136719,56.73899841308594 28.069000244140625,45.952999114990234 -8.869000434875488,9.015000343322754z"/><path stroke-linecap="round" stroke-linejoin="round" fill-opacity="0" stroke="rgb(55,97,204)" stroke-opacity="1" stroke-width="8" d=" M-8.869000434875488,9.015000343322754 C-45.80500030517578,-27.92099952697754 -56.59199905395508,-81.09600067138672 -41.2400016784668,-127.52400207519531 C-40.1349983215332,-130.86900329589844 -43.57400131225586,-133.93299865722656 -46.72700119018555,-132.36099243164062 C-60.47999954223633,-125.50800323486328 -73.2979965209961,-116.13999938964844 -84.48999786376953,-104.24700164794922 C-134.0850067138672,-51.551998138427734 -132.3470001220703,31.945999145507812 -80.70800018310547,82.63899993896484 C-28.457000732421875,133.9320068359375 55.483001708984375,133.63600158691406 107.36799621582031,81.75 C117.86499786376953,71.25299835205078 126.24700164794922,59.441001892089844 132.52099609375,46.84700012207031 C134.08599853515625,43.70199966430664 131.01800537109375,40.279998779296875 127.68199920654297,41.382999420166016 C81.25199890136719,56.73899841308594 28.069000244140625,45.952999114990234 -8.869000434875488,9.015000343322754z"/></g></g><g transform="matrix(1,0,0,1,693.7623291015625,493.5)" opacity="1" style="display: block;"><g opacity="1" transform="matrix(1,0,0,1,205.95199584960938,141.7570037841797)"><path fill="rgb(163,200,255)" fill-opacity="1" d=" M120.58100128173828,-7.716000080108643 C120.58100128173828,-7.716000080108643 118.29399871826172,-7.716000080108643 118.29399871826172,-7.716000080108643 C116.5009994506836,-43.893001556396484 86.60199737548828,-72.67400360107422 49.97999954223633,-72.67400360107422 C42.090999603271484,-72.67400360107422 34.520999908447266,-71.3219985961914 27.4689998626709,-68.86399841308594 C18.73699951171875,-99.20600128173828 -9.208999633789062,-121.41000366210938 -42.35900115966797,-121.41000366210938 C-82.49700164794922,-121.41000366210938 -115.03399658203125,-88.87200164794922 -115.03399658203125,-48.73500061035156 C-115.03399658203125,-45.888999938964844 -114.85299682617188,-43.08700180053711 -114.53500366210938,-40.32699966430664 C-154.37399291992188,-35.12200164794922 -185.1439971923828,-1.0729999542236328 -185.1439971923828,40.18600082397461 C-185.1439971923828,85.04499816894531 -148.7790069580078,121.41000366210938 -103.91899871826172,121.41000366210938 C-103.91899871826172,121.41000366210938 120.58100128173828,121.41000366210938 120.58100128173828,121.41000366210938 C156.23800659179688,121.41000366210938 185.1439971923828,92.50399780273438 185.1439971923828,56.84700012207031 C185.1439971923828,21.190000534057617 156.23800659179688,-7.716000080108643 120.58100128173828,-7.716000080108643z"/><path stroke-linecap="round" stroke-linejoin="round" fill-opacity="0" stroke="rgb(55,97,204)" stroke-opacity="1" stroke-width="8" d=" M120.58100128173828,-7.716000080108643 C120.58100128173828,-7.716000080108643 118.29399871826172,-7.716000080108643 118.29399871826172,-7.716000080108643 C116.5009994506836,-43.893001556396484 86.60199737548828,-72.67400360107422 49.97999954223633,-72.67400360107422 C42.090999603271484,-72.67400360107422 34.520999908447266,-71.3219985961914 27.4689998626709,-68.86399841308594 C18.73699951171875,-99.20600128173828 -9.208999633789062,-121.41000366210938 -42.35900115966797,-121.41000366210938 C-82.49700164794922,-121.41000366210938 -115.03399658203125,-88.87200164794922 -115.03399658203125,-48.73500061035156 C-115.03399658203125,-45.888999938964844 -114.85299682617188,-43.08700180053711 -114.53500366210938,-40.32699966430664 C-154.37399291992188,-35.12200164794922 -185.1439971923828,-1.0729999542236328 -185.1439971923828,40.18600082397461 C-185.1439971923828,85.04499816894531 -148.7790069580078,121.41000366210938 -103.91899871826172,121.41000366210938 C-103.91899871826172,121.41000366210938 120.58100128173828,121.41000366210938 120.58100128173828,121.41000366210938 C156.23800659179688,121.41000366210938 185.1439971923828,92.50399780273438 185.1439971923828,56.84700012207031 C185.1439971923828,21.190000534057617 156.23800659179688,-7.716000080108643 120.58100128173828,-7.716000080108643z"/></g></g><g transform="matrix(1,0,0,1,757.27099609375,788.261962890625)" opacity="1" style="display: block;"><g opacity="1" transform="matrix(1,0,0,1,0,0)"><path stroke-linecap="round" stroke-linejoin="miter" fill-opacity="0" stroke-miterlimit="10" stroke-dasharray=" 40 33" stroke-dashoffset="-132.3043670654297" stroke="rgb(164,201,255)" stroke-opacity="1" stroke-width="12" d=" M294,6 C294,6 294.27099609375,114.9990005493164 294.27099609375,114.9990005493164"/></g><g opacity="1" transform="matrix(1,0,0,1,4,0)"><path stroke-linecap="round" stroke-linejoin="miter" fill-opacity="0" stroke-miterlimit="10" stroke-dasharray=" 40 33" stroke-dashoffset="-97.56378173828125" stroke="rgb(164,201,255)" stroke-opacity="1" stroke-width="12" d=" M246,6 C246,6 246.27099609375,114.9990005493164 246.27099609375,114.9990005493164"/></g><g opacity="1" transform="matrix(1,0,0,1,8,0)"><path stroke-linecap="round" stroke-linejoin="miter" fill-opacity="0" stroke-miterlimit="10" stroke-dasharray=" 40 33" stroke-dashoffset="-132.3043670654297" stroke="rgb(164,201,255)" stroke-opacity="1" stroke-width="12" d=" M198,6 C198,6 198.27099609375,114.9990005493164 198.27099609375,114.9990005493164"/></g><g opacity="1" transform="matrix(1,0,0,1,12,0)"><path stroke-linecap="round" stroke-linejoin="miter" fill-opacity="0" stroke-miterlimit="10" stroke-dasharray=" 40 33" stroke-dashoffset="-97.56378173828125" stroke="rgb(164,201,255)" stroke-opacity="1" stroke-width="12" d=" M150,6 C150,6 150.27099609375,114.9990005493164 150.27099609375,114.9990005493164"/></g><g opacity="1" transform="matrix(1,0,0,1,16,0)"><path stroke-linecap="round" stroke-linejoin="miter" fill-opacity="0" stroke-miterlimit="10" stroke-dasharray=" 40 33" stroke-dashoffset="-132.3043670654297" stroke="rgb(164,201,255)" stroke-opacity="1" stroke-width="12" d=" M102,6 C102,6 102.27100372314453,114.9990005493164 102.27100372314453,114.9990005493164"/></g><g opacity="1" transform="matrix(1,0,0,1,20,0)"><path stroke-linecap="round" stroke-linejoin="miter" fill-opacity="0" stroke-miterlimit="10" stroke-dasharray=" 40 33" stroke-dashoffset="-97.56378173828125" stroke="rgb(164,201,255)" stroke-opacity="1" stroke-width="12" d=" M54,6 C54,6 54.270999908447266,114.9990005493164 54.270999908447266,114.9990005493164"/></g><g opacity="1" transform="matrix(1,0,0,1,24,0)"><path stroke-linecap="round" stroke-linejoin="miter" fill-opacity="0" stroke-miterlimit="10" stroke-dasharray=" 40 33" stroke-dashoffset="-132.3043670654297" stroke="rgb(164,201,255)" stroke-opacity="1" stroke-width="12" d=" M6,6 C6,6 6.270999908447266,114.9990005493164 6.270999908447266,114.9990005493164"/></g></g></g></g></svg>