<svg xmlns="http://www.w3.org/2000/svg" xmlns:xlink="http://www.w3.org/1999/xlink" viewBox="0 0 350 350" width="150" height="150" preserveAspectRatio="xMidYMid meet" style="width: 100%; height: 100%; transform: translate3d(0px, 0px, 0px); content-visibility: visible;" id="Partly Cloudy"><defs><clipPath id="__lottie_element_2"><rect width="350" height="350" x="0" y="0"/></clipPath><g id="__lottie_element_19"><g transform="matrix(1,0,0,1,175,175)" opacity="1" style="display: block;"><g opacity="1" transform="matrix(1,0,0,1,0,0)"><path fill="rgb(25,52,93)" fill-opacity="1" d=" M40.91600036621094,69.34700012207031 C41.124000549316406,70.59700012207031 37.125,71.51300048828125 33.625,71.93000030517578 C32.25,72.05500030517578 30.916000366210938,72.22200012207031 29.58300018310547,72.34700012207031 C21.58300018310547,73.22200012207031 13.25100040435791,73.80500030517578 4.750999927520752,73.97200012207031 C-4.289999961853027,74.13899993896484 -15.206999778747559,73.59700012207031 -20.24799919128418,70.63899993896484 C-23.415000915527344,68.76399993896484 -23.24799919128418,66.51399993896484 -21.24799919128418,64.68099975585938 C-19.915000915527344,63.472999572753906 -10.456000328063965,60.805999755859375 -5.248000144958496,59.013999938964844 C-8.248000144958496,60.34700012207031 -11.456000328063965,62.638999938964844 -14.248000144958496,63.388999938964844 C-16.83099937438965,64.05599975585938 -19.790000915527344,65.05599975585938 -19.62299919128418,66.51399993896484 C-19.49799919128418,67.47200012207031 -17.95599937438965,68.26399993896484 -16.24799919128418,68.59700012207031 C-14.498000144958496,68.97200012207031 -12.581999778747559,68.97200012207031 -10.706999778747559,69.01399993896484 C6.459000110626221,69.09700012207031 23.583999633789062,69.22200012207031 40.70800018310547,69.34700012207031 C40.70800018310547,69.34700012207031 40.91600036621094,69.34700012207031 40.91600036621094,69.34700012207031z"/></g><g opacity="1" transform="matrix(1,0,0,1,0,0)"><g opacity="1" transform="matrix(1,0,0,1,0,0)"><g opacity="1" transform="matrix(1,0,0,1,0,0)"><path fill="rgb(52,184,253)" fill-opacity="1" d=" M94.78900146484375,57.388999938964844 C92.58100128173828,58.09700012207031 90.03900146484375,58.63999938964844 87.24700164794922,59.097999572753906 C84.87200164794922,59.472999572753906 82.33100128173828,59.805999755859375 79.78900146484375,60.097999572753906 C78.66400146484375,60.222999572753906 77.58100128173828,60.305999755859375 76.45600128173828,60.388999938964844 C65.20700073242188,61.430999755859375 53.49800109863281,62.01499938964844 41.624000549316406,62.222999572753906 C38.582000732421875,62.222999572753906 35.374000549316406,62.222999572753906 32.79100036621094,62.680999755859375 C32.124000549316406,62.805999755859375 31.54199981689453,62.972999572753906 31.04199981689453,63.180999755859375 C31,63.180999755859375 31,63.222999572753906 30.95800018310547,63.222999572753906 C30.125,63.555999755859375 29.58300018310547,64.05500030517578 29.45800018310547,64.47200012207031 C29.291000366210938,64.80500030517578 29.416000366210938,65.13899993896484 29.83300018310547,65.47200012207031 C31.916000366210938,67.05500030517578 39.08300018310547,67.22200012207031 40.66600036621094,68.84700012207031 C40.83300018310547,69.01399993896484 40.91600036621094,69.18000030517578 40.91600036621094,69.34700012207031 C41.124000549316406,70.59700012207031 37.125,71.51300048828125 33.625,71.93000030517578 C32.25,72.05500030517578 30.916000366210938,72.22200012207031 29.58300018310547,72.34700012207031 C21.58300018310547,73.22200012207031 13.25100040435791,73.80500030517578 4.750999927520752,73.97200012207031 C-4.289999961853027,74.13899993896484 -15.206999778747559,73.59700012207031 -20.24799919128418,70.63899993896484 C-23.415000915527344,68.76399993896484 -23.24799919128418,66.51399993896484 -21.24799919128418,64.68099975585938 C-19.915000915527344,63.472999572753906 -10.456000328063965,60.805999755859375 -5.248000144958496,59.013999938964844 C-5.039999961853027,58.888999938964844 -4.830999851226807,58.805999755859375 -4.623000144958496,58.763999938964844 C-4.039999961853027,58.555999755859375 -3.5409998893737793,58.388999938964844 -3.124000072479248,58.180999755859375 C-3.124000072479248,58.180999755859375 -3.0820000171661377,58.180999755859375 -3.0820000171661377,58.180999755859375 C-1.8320000171661377,57.638999938964844 -1.3739999532699585,57.263999938964844 -2.3320000171661377,57.138999938964844 C-12.498000144958496,55.97200012207031 -28.62299919128418,57.055999755859375 -44.37200164794922,57.805999755859375 C-55.20500183105469,58.347999572753906 -65.87100219726562,58.72200012207031 -74.28700256347656,58.138999938964844 C-80.99500274658203,57.680999755859375 -88.03700256347656,57.055999755859375 -93.4530029296875,55.430999755859375 C-98.86900329589844,53.763999938964844 -101.9520034790039,50.76499938964844 -98.61900329589844,48.76499938964844 C-97.5770034790039,48.13999938964844 -96.12000274658203,47.68199920654297 -94.4530029296875,47.38999938964844 C-92.8280029296875,47.05699920654297 -90.91100311279297,46.847999572753906 -88.91100311279297,46.76499938964844 C-88.16100311279297,46.68199920654297 -87.37000274658203,46.63999938964844 -86.5780029296875,46.63999938964844 C-86.53600311279297,46.63999938964844 -86.4530029296875,46.597999572753906 -86.37000274658203,46.597999572753906 C-84.78700256347656,46.555999755859375 -83.16200256347656,46.55699920654297 -81.62000274658203,46.51499938964844 C-72.99500274658203,46.43199920654297 -64.41300201416016,46.3489990234375 -55.91299819946289,46.30699920654297 C-52.91299819946289,46.2239990234375 -49.78799819946289,46.2239990234375 -47.12099838256836,45.80699920654297 C-46.95399856567383,45.80699920654297 -46.83000183105469,45.80699920654297 -46.70500183105469,45.76499938964844 C-43.95500183105469,45.26499938964844 -41.74700164794922,44.2239990234375 -42.12200164794922,43.05699920654297 C-42.53900146484375,41.93199920654297 -45.33000183105469,40.93199920654297 -48.33000183105469,40.55699920654297 C-51.37200164794922,40.13999938964844 -54.58000183105469,40.18199920654297 -57.66299819946289,40.3489990234375 C-61.74599838256836,40.39099884033203 -65.8290023803711,40.597999572753906 -69.9540023803711,40.38999938964844 C-74.0790023803711,40.26499938964844 -78.41200256347656,39.51599884033203 -80.91200256347656,38.2239990234375 C-85.53700256347656,35.89099884033203 -81.9540023803711,32.5989990234375 -75.5790023803711,31.266000747680664 C-75.16200256347656,31.183000564575195 -74.7030029296875,31.099000930786133 -74.24500274658203,31.05699920654297 C-68.12000274658203,30.05699920654297 -60.70399856567383,30.183000564575195 -53.62099838256836,30.391000747680664 C-53.62099838256836,30.391000747680664 -44.16299819946289,30.724000930786133 -44.16299819946289,30.724000930786133 C-45.12099838256836,30.05699920654297 -45.37200164794922,29.308000564575195 -44.45500183105469,28.766000747680664 C-43.99700164794922,28.558000564575195 -43.41299819946289,28.349000930786133 -42.66299819946289,28.18199920654297 C-41.99599838256836,28.05699920654297 -41.20500183105469,28.014999389648438 -40.37200164794922,27.93199920654297 C-39.41400146484375,27.849000930786133 -38.37200164794922,27.849000930786133 -37.33000183105469,27.849000930786133 C-33.78799819946289,27.80699920654297 -30.20599937438965,27.80699920654297 -26.70599937438965,27.724000930786133 C-25.33099937438965,27.724000930786133 -23.99799919128418,27.724000930786133 -22.87299919128418,27.516000747680664 C-21.70599937438965,27.308000564575195 -20.746999740600586,26.891000747680664 -20.913999557495117,26.433000564575195 C-21.08099937438965,25.933000564575195 -22.288999557495117,25.516000747680664 -23.538999557495117,25.391000747680664 C-24.788999557495117,25.183000564575195 -26.08099937438965,25.266000747680664 -27.413999557495117,25.266000747680664 C-29.08099937438965,25.308000564575195 -30.788999557495117,25.391000747680664 -32.53900146484375,25.308000564575195 C-34.24700164794922,25.266000747680664 -36.03900146484375,24.974000930786133 -37.03900146484375,24.349000930786133 C-38.99700164794922,23.391000747680664 -37.45500183105469,22.016000747680664 -34.87200164794922,21.558000564575195 C-32.20500183105469,21.016000747680664 -28.87299919128418,21.058000564575195 -25.70599937438965,21.141000747680664 C-25.70599937438965,21.141000747680664 -19.913999557495117,21.349000930786133 -19.913999557495117,21.349000930786133 C-19.913999557495117,21.349000930786133 -19.62299919128418,21.349000930786133 -19.62299919128418,21.349000930786133 C-8.164999961853027,21.55699920654297 3.2929999828338623,20.933000564575195 14.791999816894531,21.058000564575195 C15.416999816894531,21.058000564575195 16.083999633789062,21.141000747680664 16.750999450683594,21.141000747680664 C18.375999450683594,21.141000747680664 19.95800018310547,21.225000381469727 21.5,21.433000564575195 C23.75,21.683000564575195 25.875,22.224000930786133 26.91699981689453,22.974000930786133 C28.04199981689453,23.724000930786133 27.66699981689453,24.766000747680664 25.875,25.183000564575195 C24.04199981689453,25.683000564575195 21.375,25.391000747680664 19.04199981689453,25.183000564575195 C16.75,25.058000564575195 13.875,25.058000564575195 12.916999816894531,25.808000564575195 C11.916999816894531,26.641000747680664 14.125,27.641000747680664 16.54199981689453,28.016000747680664 C19.04199981689453,28.391000747680664 21.66699981689453,28.349000930786133 24.25,28.266000747680664 C26.75,28.183000564575195 29.333999633789062,28.058000564575195 31.91699981689453,28.266000747680664 C34.5,28.474000930786133 37.08300018310547,29.099000930786133 37.875,30.05699920654297 C37.91699981689453,30.139999389648438 37.91600036621094,30.139999389648438 37.95800018310547,30.18199920654297 C39.91600036621094,30.18199920654297 41.832000732421875,30.183000564575195 43.749000549316406,30.266000747680664 C45.374000549316406,30.266000747680664 46.91600036621094,30.30699920654297 48.499000549316406,30.30699920654297 C52.374000549316406,30.389999389648438 56.249000549316406,30.599000930786133 59.957000732421875,31.016000747680664 C61.749000549316406,31.224000930786133 63.540000915527344,31.558000564575195 65.20700073242188,31.891000747680664 C68.45700073242188,32.64099884033203 71.29000091552734,33.597999572753906 73.04000091552734,34.76499938964844 C75.58200073242188,36.63999938964844 74.83100128173828,39.097999572753906 70.49800109863281,40.13999938964844 C65.99800109863281,41.222999572753906 59.66600036621094,40.55699920654297 54.04100036621094,40.13999938964844 C48.5,39.722999572753906 41.54100036621094,39.80699920654297 39.29100036621094,41.55699920654297 C36.83300018310547,43.55699920654297 42.20800018310547,46.01499938964844 48.04100036621094,46.93199920654297 C53.957000732421875,47.80699920654297 60.374000549316406,47.680999755859375 66.54000091552734,47.472999572753906 C72.62300109863281,47.305999755859375 78.78900146484375,46.972999572753906 84.99700164794922,47.51499938964844 C91.16300201416016,48.01499938964844 97.41400146484375,49.51499938964844 99.37200164794922,51.722999572753906 C101.20500183105469,53.847999572753906 98.83000183105469,56.013999938964844 94.78900146484375,57.388999938964844z"/></g></g></g><g opacity="1" transform="matrix(1,0,0,1,0,0)"><path fill="rgb(25,52,93)" fill-opacity="1" d=" M-45.78099822998047,41.06100082397461 C-44.96699905395508,40.47100067138672 -64.4540023803711,39.05699920654297 -73.41200256347656,38.18199920654297 C-74.5790023803711,38.05699920654297 -75.78600311279297,37.93199920654297 -76.8280029296875,37.43199920654297 C-77.87000274658203,36.88999938964844 -78.74500274658203,35.89099884033203 -78.8280029296875,34.7239990234375 C-78.87000274658203,33.4739990234375 -77.99500274658203,32.38999938964844 -76.91200256347656,31.80699920654297 C-76.12000274658203,31.389999389648438 -75.03700256347656,31.389999389648438 -74.24500274658203,31.05699920654297 C-74.7030029296875,31.099000930786133 -75.16200256347656,31.183000564575195 -75.5790023803711,31.266000747680664 C-81.9540023803711,32.5989990234375 -85.53700256347656,35.89099884033203 -80.91200256347656,38.2239990234375 C-78.41200256347656,39.51599884033203 -74.0790023803711,40.26499938964844 -69.9540023803711,40.38999938964844 C-65.8290023803711,40.597999572753906 -61.74599838256836,40.39099884033203 -57.66299819946289,40.3489990234375 C-54.58000183105469,40.18199920654297 -51.37200164794922,40.13999938964844 -48.33000183105469,40.55699920654297 C-47.43299865722656,40.66899871826172 -46.58300018310547,40.849998474121094 -45.78099822998047,41.06100082397461z"/></g><g opacity="1" transform="matrix(1,0,0,1,0,0)"><path fill="rgb(25,52,93)" fill-opacity="1" d=" M94.78900146484375,57.388999938964844 C92.58100128173828,58.09700012207031 90.03900146484375,58.63999938964844 87.24700164794922,59.097999572753906 C84.87200164794922,59.472999572753906 82.33100128173828,59.805999755859375 79.78900146484375,60.097999572753906 C78.66400146484375,60.222999572753906 77.58100128173828,60.305999755859375 76.45600128173828,60.388999938964844 C86.03900146484375,58.805999755859375 85.66400146484375,55.180999755859375 86.03900146484375,54.055999755859375 C86.41400146484375,52.847999572753906 85.49700164794922,51.55699920654297 84.37200164794922,51.01499938964844 C83.24700164794922,50.472999572753906 81.91400146484375,50.51499938964844 80.66400146484375,50.51499938964844 C65.99800109863281,50.88999938964844 51.332000732421875,50.430999755859375 36.70800018310547,49.097999572753906 C35.375,48.972999572753906 33.999000549316406,48.847999572753906 32.79100036621094,48.222999572753906 C31.624000549316406,47.597999572753906 30.625,46.347999572753906 30.75,45.01499938964844 C30.91699981689453,43.097999572753906 32.999000549316406,42.05699920654297 34.79100036621094,41.43199920654297 C43.54100036621094,38.30699920654297 52.91600036621094,36.89099884033203 62.207000732421875,37.2239990234375 C63.749000549316406,37.30699920654297 65.95700073242188,37.30699920654297 66.70700073242188,35.63999938964844 C67.3740005493164,34.13999938964844 66.3740005493164,32.76599884033203 65.20700073242188,31.891000747680664 C68.45700073242188,32.64099884033203 71.29000091552734,33.597999572753906 73.04000091552734,34.76499938964844 C75.58200073242188,36.63999938964844 74.83100128173828,39.097999572753906 70.49800109863281,40.13999938964844 C65.99800109863281,41.222999572753906 59.66600036621094,40.55699920654297 54.04100036621094,40.13999938964844 C48.5,39.722999572753906 41.54100036621094,39.80699920654297 39.29100036621094,41.55699920654297 C36.83300018310547,43.55699920654297 42.20800018310547,46.01499938964844 48.04100036621094,46.93199920654297 C53.957000732421875,47.80699920654297 60.374000549316406,47.680999755859375 66.54000091552734,47.472999572753906 C72.62300109863281,47.305999755859375 78.78900146484375,46.972999572753906 84.99700164794922,47.51499938964844 C91.16300201416016,48.01499938964844 97.41400146484375,49.51499938964844 99.37200164794922,51.722999572753906 C101.20500183105469,53.847999572753906 98.83000183105469,56.013999938964844 94.78900146484375,57.388999938964844z"/></g><g opacity="1" transform="matrix(1,0,0,1,0,0)"><path fill="rgb(25,52,93)" fill-opacity="1" d=" M-44.37200164794922,57.805999755859375 C-55.20500183105469,58.347999572753906 -65.87100219726562,58.72200012207031 -74.28700256347656,58.138999938964844 C-80.99500274658203,57.680999755859375 -88.03700256347656,57.055999755859375 -93.4530029296875,55.430999755859375 C-98.86900329589844,53.763999938964844 -101.9520034790039,50.76499938964844 -98.61900329589844,48.76499938964844 C-97.5770034790039,48.13999938964844 -96.12000274658203,47.68199920654297 -94.4530029296875,47.38999938964844 C-92.8280029296875,47.05699920654297 -90.91100311279297,46.847999572753906 -88.91100311279297,46.76499938964844 C-88.16100311279297,46.68199920654297 -87.37000274658203,46.63999938964844 -86.5780029296875,46.63999938964844 C-93.49400329589844,47.88999938964844 -94.99400329589844,47.430999755859375 -96.24400329589844,49.305999755859375 C-97.0770034790039,50.555999755859375 -95.53600311279297,52.305999755859375 -94.24400329589844,53.097999572753906 C-92.9520034790039,53.847999572753906 -91.37000274658203,54.05699920654297 -89.87000274658203,54.26499938964844 C-74.78700256347656,56.18199920654297 -59.58000183105469,57.347999572753906 -44.37200164794922,57.805999755859375z"/></g></g></g><mask id="__lottie_element_19_1" mask-type="alpha"><use xmlns:ns1="http://www.w3.org/1999/xlink" ns1:href="#__lottie_element_19"/></mask></defs><g clip-path="url(#__lottie_element_2)"><g transform="matrix(-0.9897562861442566,0.14276713132858276,-0.14276713132858276,-0.9897562861442566,152.42868041992188,140.4735107421875)" opacity="1" style="display: block;"><g opacity="1" transform="matrix(1,0,0,1,0,0)"><g opacity="1" transform="matrix(1,0,0,1,0,0)"><path fill="rgb(255,202,40)" fill-opacity="1" d=" M-32.81700134277344,-18.05699920654297 C-32.81700134277344,-15.321999549865723 -32.33599853515625,-12.706999778747559 -31.43400001525879,-10.272000312805176 C-28.277000427246094,-1.5549999475479126 -19.922000885009766,4.666999816894531 -10.062000274658203,4.666999816894531 C2.5320000648498535,4.666999816894531 12.722999572753906,-5.492000102996826 12.722999572753906,-18.05699920654297 C12.722999572753906,-25 9.597000122070312,-31.222999572753906 4.666999816894531,-35.4010009765625 C3.555000066757202,-36.33300018310547 2.3519999980926514,-37.17399978637695 1.090000033378601,-37.895999908447266 C-2.187000036239624,-39.7599983215332 -6.004000186920166,-40.8120002746582 -10.062000274658203,-40.8120002746582 C-13.9399995803833,-40.8120002746582 -17.57699966430664,-39.880001068115234 -20.732999801635742,-38.137001037597656 C-27.91699981689453,-34.319000244140625 -32.81700134277344,-26.77400016784668 -32.81700134277344,-18.05699920654297z"/></g><g opacity="1" transform="matrix(1,0,0,1,0,0)"><path fill="rgb(255,159,28)" fill-opacity="1" d=" M12.708999633789062,-18.055999755859375 C12.708999633789062,-5.486999988555908 2.5220000743865967,4.666999816894531 -10.079999923706055,4.666999816894531 C-22.64900016784668,4.666999816894531 -32.801998138427734,-5.486999988555908 -32.801998138427734,-18.055999755859375 C-32.801998138427734,-19.280000686645508 -32.702999114990234,-20.47100067138672 -32.505001068115234,-21.628000259399414 C-31.3799991607666,-28.80500030517578 -26.915000915527344,-34.858001708984375 -20.729999542236328,-38.165000915527344 C-20.531999588012695,-37.30500030517578 -20.565000534057617,-36.44499969482422 -20.76300048828125,-35.584999084472656 C-21.423999786376953,-33.005001068115234 -23.639999389648438,-31.219999313354492 -25.16200065612793,-29.03700065612793 C-28.238000869750977,-24.604999542236328 -28.172000885009766,-18.22100067138672 -25.030000686645508,-13.854999542236328 C-21.854999542236328,-9.48900032043457 -15.803000450134277,-7.439000129699707 -10.609000205993652,-8.993000030517578 C-7.434000015258789,-9.920000076293945 -4.458000183105469,-12.5 -4.192999839782715,-15.84000015258789 C-3.927999973297119,-18.716999053955078 -5.714000225067139,-21.594999313354492 -5.052000045776367,-24.37299919128418 C-4.324999809265137,-27.284000396728516 -1.281999945640564,-28.937000274658203 0.3059999942779541,-31.451000213623047 C1.496000051498413,-33.303001403808594 1.7949999570846558,-35.784000396728516 1.100000023841858,-37.86800003051758 C1.9930000305175781,-37.37200164794922 2.8529999256134033,-36.808998107910156 3.6459999084472656,-36.2140007019043 C9.168999671936035,-32.08000183105469 12.708999633789062,-25.46500015258789 12.708999633789062,-18.055999755859375z"/></g><g opacity="1" transform="matrix(1,0,0,1,0,0)"><path fill="rgb(255,159,28)" fill-opacity="1" d=" M-8.357000350952148,-19.198999404907227 C-8.230999946594238,-18.66699981689453 -8.154000282287598,-18.11400032043457 -8.244000434875488,-17.576000213623047 C-8.333999633789062,-17.038000106811523 -8.609999656677246,-16.511999130249023 -9.067000389099121,-16.214000701904297 C-9.77400016784668,-15.753999710083008 -10.76200008392334,-15.949999809265137 -11.416999816894531,-16.481000900268555 C-12.071999549865723,-17.011999130249023 -12.45300006866455,-17.80900001525879 -12.734000205993652,-18.604000091552734 C-13.071000099182129,-19.55900001525879 -13.29800033569336,-20.601999282836914 -13.041999816894531,-21.582000732421875 C-12.793999671936035,-22.53700065612793 -11.467000007629395,-24.06599998474121 -10.46399974822998,-23.18600082397461 C-9.383000373840332,-22.23699951171875 -8.680000305175781,-20.56399917602539 -8.357000350952148,-19.198999404907227z"/></g><g opacity="1" transform="matrix(1,0,0,1,0,0)"><path fill="rgb(255,159,28)" fill-opacity="1" d=" M-12.795999526977539,-26.281999588012695 C-12.722999572753906,-25.97599983215332 -12.678000450134277,-25.6560001373291 -12.729999542236328,-25.34600067138672 C-12.781999588012695,-25.035999298095703 -12.940999984741211,-24.732999801635742 -13.204999923706055,-24.562000274658203 C-13.612000465393066,-24.297000885009766 -14.182000160217285,-24.40999984741211 -14.559000015258789,-24.715999603271484 C-14.935999870300293,-25.02199935913086 -15.156000137329102,-25.481000900268555 -15.317999839782715,-25.93899917602539 C-15.512999534606934,-26.48900032043457 -15.642000198364258,-27.09000015258789 -15.494999885559082,-27.655000686645508 C-15.35200023651123,-28.20599937438965 -14.588000297546387,-29.086999893188477 -14.010000228881836,-28.579999923706055 C-13.38700008392334,-28.033000946044922 -12.982000350952148,-27.069000244140625 -12.795999526977539,-26.281999588012695z"/></g></g><g opacity="1" transform="matrix(1,0,0,1,0,0)"><path fill="rgb(0,0,0)" fill-opacity="1" d=" M12.706999778747559,-18.040000915527344 C12.706999778747559,-5.466000080108643 2.5420000553131104,4.65500020980835 -10.07699966430664,4.65500020980835 C-19.97599983215332,4.65500020980835 -28.357999801635742,-1.5880000591278076 -31.479000091552734,-10.416000366210938 C-27.55500030517578,-3.7279999256134033 -20.243000030517578,0.7310000061988831 -11.949000358581543,0.7310000061988831 C0.6690000295639038,0.7310000061988831 10.878999710083008,-9.4350004196167 10.878999710083008,-21.964000701904297 C10.878999710083008,-24.638999938964844 10.432999610900879,-27.22599983215332 9.541000366210938,-29.589000701904297 C11.593000411987305,-26.200000762939453 12.706999778747559,-22.275999069213867 12.706999778747559,-18.040000915527344z"/></g></g><g transform="matrix(1,0,0,1,175,175)" opacity="0.3825423813489565" style="display: block;"><g opacity="1" transform="matrix(1,0,0,1,0,0)"><path stroke-linecap="round" stroke-linejoin="round" fill-opacity="0" stroke="rgb(255,159,28)" stroke-opacity="1" stroke-width="4.166" d=" M4.421999931335449,-47.7859992980957 C9.145000457763672,-54.99100112915039 13.868000030517578,-62.19499969482422 18.59000015258789,-69.39900207519531"/></g><g opacity="1" transform="matrix(1,0,0,1,0,0)"><path stroke-linecap="round" stroke-linejoin="round" fill-opacity="0" stroke="rgb(255,159,28)" stroke-opacity="1" stroke-width="4.166" d=" M14.395999908447266,-36.948001861572266 C19.3700008392334,-39.62099838256836 24.606000900268555,-41.805999755859375 30.006000518798828,-43.45899963378906"/></g><g opacity="1" transform="matrix(1,0,0,1,0,0)"><path stroke-linecap="round" stroke-linejoin="round" fill-opacity="0" stroke="rgb(255,159,28)" stroke-opacity="1" stroke-width="4.166" d=" M-9.704000473022461,-50.42499923706055 C-9.932000160217285,-55.87099838256836 -10.16100025177002,-61.314998626708984 -10.388999938964844,-66.76000213623047"/></g><g opacity="1" transform="matrix(1,0,0,1,0,0)"><path stroke-linecap="round" stroke-linejoin="round" fill-opacity="0" stroke="rgb(255,159,28)" stroke-opacity="1" stroke-width="4.166" d=" M-22.535999298095703,-46.54199981689453 C-28.49799919128418,-55.694000244140625 -34.459999084472656,-64.84700012207031 -40.422000885009766,-73.9990005493164"/></g></g><g transform="matrix(1,0,0,1,164.6179962158203,175)" opacity="1" style="display: block;"><g opacity="1" transform="matrix(1,0,0,1,0,0)"><g opacity="1" transform="matrix(1,0,0,1,0,0)"><path fill="rgb(9,93,164)" fill-opacity="1" d=" M62.57699966430664,-4.656000137329102 C62.516998291015625,-4.9079999923706055 62.42499923706055,-5.1529998779296875 62.305999755859375,-5.355999946594238 C61.599998474121094,-6.5329999923706055 60.130001068115234,-6.443999767303467 59.483001708984375,-5.209000110626221 C60.099998474121094,-6.414999961853027 60.130001068115234,-8.151000022888184 59.57099914550781,-9.38599967956543 C59.159000396728516,-10.357000350952148 58.39500045776367,-11.031999588012695 57.60100173950195,-11.208999633789062 C57.483001708984375,-11.23799991607666 57.33599853515625,-11.23900032043457 57.21799850463867,-11.23900032043457 C57.099998474121094,-11.23900032043457 56.981998443603516,-11.210000038146973 56.8650016784668,-11.180000305175781 C55.952999114990234,-11.003000259399414 55.159000396728516,-10.090999603271484 54.777000427246094,-8.944000244140625 C55.18899917602539,-10.73799991607666 54.805999755859375,-12.82699966430664 53.89400100708008,-14.269000053405762 C52.89400100708008,-15.857000350952148 51.36399841308594,-16.621000289916992 49.86399841308594,-16.68000030517578 C48.1879997253418,-16.73900032043457 46.481998443603516,-15.82699966430664 45.36399841308594,-14.062999725341797 C44.2760009765625,-12.29800033569336 43.86399841308594,-9.680000305175781 44.51100158691406,-7.502999782562256 C43.922000885009766,-9.032999992370605 43.06999969482422,-10.208999633789062 41.92300033569336,-10.82699966430664 C40.74599838256836,-11.414999961853027 39.36399841308594,-11.180000305175781 38.45199966430664,-10.062000274658203 C37.51100158691406,-8.944000244140625 37.15800094604492,-6.886000156402588 37.775001525878906,-5.385000228881836 C37.393001556396484,-6.327000141143799 36.775001525878906,-7.061999797821045 36.069000244140625,-7.443999767303467 C35.5099983215332,-7.73799991607666 34.922000885009766,-7.826000213623047 34.33399963378906,-7.650000095367432 C33.95199966430664,-7.5320000648498535 33.540000915527344,-7.26800012588501 33.275001525878906,-6.886000156402588 C33.069000244140625,-6.620999813079834 32.922000885009766,-6.267000198364258 32.891998291015625,-5.855999946594238 C32.85599899291992,-5.421000003814697 32.970001220703125,-5.026000022888184 33.125999450683594,-4.656000137329102 C33.125999450683594,-4.656000137329102 62.57699966430664,-4.656000137329102 62.57699966430664,-4.656000137329102z"/></g><g opacity="1" transform="matrix(1,0,0,1,0,0)"><g opacity="1" transform="matrix(1,0,0,1,0,0)"><path fill="rgb(52,184,253)" fill-opacity="1" d=" M48.650001525878906,-0.8560000061988831 C48.60499954223633,-0.2759999930858612 48.29399871826172,0.2590000033378601 47.9370002746582,0.4819999933242798 C47.9370002746582,0.4819999933242798 7.675000190734863,1.149999976158142 3.750999927520752,1.149999976158142 C-1.2879999876022339,1.149999976158142 -5.389999866485596,0.7049999833106995 -5.389999866485596,0.125 C-5.389999866485596,-0.23199999332427979 -3.8289999961853027,-0.49900001287460327 -1.465999960899353,-0.722000002861023 C-2.000999927520752,-1.569000005722046 -2.5360000133514404,-2.684000015258789 -2.4019999504089355,-3.888000011444092 C-2.3570001125335693,-4.60099983215332 -2.134999990463257,-5.22599983215332 -1.777999997138977,-5.671999931335449 C-1.2879999876022339,-6.341000080108643 -0.6190000176429749,-6.7870001792907715 0.05000000074505806,-6.965000152587891 C0.8519999980926514,-7.188000202178955 1.6100000143051147,-7.186999797821045 2.368000030517578,-6.920000076293945 C2.5910000801086426,-6.875 2.813999891281128,-6.7870001792907715 3.0369999408721924,-6.6529998779296875 C4.241000175476074,-5.984000205993652 5.310999870300293,-4.690999984741211 5.980000019073486,-3.0859999656677246 C4.909999847412109,-5.671999931335449 5.533999919891357,-9.194000244140625 7.138999938964844,-11.111000061035156 C8.699999809265137,-13.027999877929688 11.062999725341797,-13.473999977111816 13.11400032043457,-12.449000358581543 C15.076000213623047,-11.378999710083008 16.547000885009766,-9.373000144958496 17.527999877929688,-6.742000102996826 C16.413000106811523,-10.487000465393066 17.12700080871582,-14.991000175476074 19,-18.023000717163086 C20.91699981689453,-21.010000228881836 23.858999252319336,-22.614999771118164 26.71299934387207,-22.481000900268555 C29.298999786376953,-22.392000198364258 31.93000030517578,-21.099000930786133 33.66899871826172,-18.334999084472656 C35.22999954223633,-15.883000373840332 35.89799880981445,-12.270999908447266 35.185001373291016,-9.194000244140625 C35.76499938964844,-11.065999984741211 36.96799850463867,-12.538000106811523 38.39500045776367,-12.939000129699707 C38.52899932861328,-12.984000205993652 38.61800003051758,-13.029000282287598 38.75199890136719,-13.029000282287598 C38.974998474121094,-13.118000030517578 39.15299987792969,-13.161999702453613 39.375999450683594,-13.161999702453613 C39.55400085449219,-13.161999702453613 39.821998596191406,-13.163000106811523 40,-13.118000030517578 C41.38199996948242,-12.805999755859375 42.720001220703125,-11.647000312805176 43.388999938964844,-9.95199966430664 C44.369998931884766,-7.855999946594238 44.32500076293945,-4.86899995803833 43.255001068115234,-2.7739999294281006 C44.369998931884766,-4.914000034332275 46.9109992980957,-5.046999931335449 48.1150016784668,-3.0409998893737793 C48.47200012207031,-2.4159998893737793 48.784000396728516,-1.6139999628067017 48.650001525878906,-0.8560000061988831z"/></g><g opacity="1" transform="matrix(1,0,0,1,0,0)"><path fill="rgb(25,52,93)" fill-opacity="1" d=" M48.650001525878906,-0.8560000061988831 C48.60499954223633,-0.2759999930858612 48.29399871826172,0.2590000033378601 47.9370002746582,0.4819999933242798 C47.9370002746582,0.4819999933242798 7.675000190734863,1.149999976158142 3.750999927520752,1.149999976158142 C-1.2879999876022339,1.149999976158142 -5.389999866485596,0.7049999833106995 -5.389999866485596,0.125 C-5.389999866485596,-0.23199999332427979 -3.8289999961853027,-0.49900001287460327 -1.465999960899353,-0.722000002861023 C-2.000999927520752,-1.569000005722046 -2.5360000133514404,-2.684000015258789 -2.4019999504089355,-3.888000011444092 C-2.3570001125335693,-4.60099983215332 -2.134999990463257,-5.22599983215332 -1.777999997138977,-5.671999931335449 C-1.2879999876022339,-6.341000080108643 -0.6190000176429749,-6.7870001792907715 0.05000000074505806,-6.965000152587891 C0.8519999980926514,-7.188000202178955 1.6100000143051147,-7.186999797821045 2.368000030517578,-6.920000076293945 C1.2979999780654907,-5.269999980926514 1.4769999980926514,-2.861999988555908 2.8589999675750732,-1.4800000190734863 C4.419000148773193,0.07999999821186066 7.2729997634887695,0.125 8.878000259399414,-1.3910000324249268 C9.814000129699707,-2.3269999027252197 10.394000053405762,-3.753999948501587 11.597999572753906,-4.289000034332275 C13.024999618530273,-4.86899995803833 14.586000442504883,-4.066999912261963 15.968000411987305,-3.3980000019073486 C20.784000396728516,-1.034999966621399 26.222999572753906,-0.05400000140070915 31.52899932861328,-0.5 C34.20399856567383,-0.7229999899864197 37.01300048828125,-1.4359999895095825 38.840999603271484,-3.3529999256134033 C40.13399887084961,-4.735000133514404 40.803001403808594,-6.697000026702881 40.625,-8.569999694824219 C40.446998596191406,-10.263999938964844 39.643001556396484,-11.869000434875488 38.39500045776367,-12.939000129699707 C38.52899932861328,-12.984000205993652 38.61800003051758,-13.029000282287598 38.75199890136719,-13.029000282287598 C38.974998474121094,-13.118000030517578 39.15299987792969,-13.161999702453613 39.375999450683594,-13.161999702453613 C39.55400085449219,-13.161999702453613 39.821998596191406,-13.163000106811523 40,-13.118000030517578 C41.38199996948242,-12.805999755859375 42.720001220703125,-11.647000312805176 43.388999938964844,-9.95199966430664 C44.369998931884766,-7.855999946594238 44.32500076293945,-4.86899995803833 43.255001068115234,-2.7739999294281006 C44.369998931884766,-4.914000034332275 46.9109992980957,-5.046999931335449 48.1150016784668,-3.0409998893737793 C48.47200012207031,-2.4159998893737793 48.784000396728516,-1.6139999628067017 48.650001525878906,-0.8560000061988831z"/></g></g><g opacity="1" transform="matrix(1,0,0,1,0,0)"><path fill="rgb(25,52,93)" fill-opacity="1" d=" M34.50899887084961,-7.809000015258789 C34.5,-7.624000072479248 34.520999908447266,-7.425000190734863 34.61899948120117,-7.2870001792907715 C34.76599884033203,-7.080999851226807 35.04800033569336,-7.09499979019165 35.220001220703125,-7.26800012588501 C35.391998291015625,-7.440999984741211 35.465999603271484,-7.729000091552734 35.472999572753906,-8.003999710083008 C35.48099899291992,-8.35099983215332 35.29899978637695,-8.982999801635742 34.92300033569336,-8.854000091552734 C34.638999938964844,-8.756999969482422 34.52399826049805,-8.111000061035156 34.50899887084961,-7.809000015258789z"/></g><g opacity="1" transform="matrix(1,0,0,1,0,0)"><path fill="rgb(25,52,93)" fill-opacity="1" d=" M34.12900161743164,-5.827000141143799 C34.12200164794922,-5.682000160217285 34.138999938964844,-5.525000095367432 34.215999603271484,-5.415999889373779 C34.33100128173828,-5.254000186920166 34.551998138427734,-5.264999866485596 34.6879997253418,-5.401000022888184 C34.823001861572266,-5.5370001792907715 34.882999420166016,-5.763999938964844 34.88800048828125,-5.980999946594238 C34.89500045776367,-6.254000186920166 34.750999450683594,-6.752999782562256 34.45500183105469,-6.651000022888184 C34.23099899291992,-6.573999881744385 34.13999938964844,-6.065999984741211 34.12900161743164,-5.827000141143799z"/></g><g opacity="1" transform="matrix(1,0,0,1,0,0)"><g opacity="1" transform="matrix(1,0,0,1,0,0)"><path fill="rgb(25,52,93)" fill-opacity="1" d=" M17.58300018310547,-5.691999912261963 C17.64299964904785,-5.571000099182129 17.726999282836914,-5.449999809265137 17.839000701904297,-5.396999835968018 C18.006000518798828,-5.317999839782715 18.180999755859375,-5.426000118255615 18.229000091552734,-5.5980000495910645 C18.277999877929688,-5.769999980926514 18.222999572753906,-5.980999946594238 18.1299991607666,-6.158999919891357 C18.011999130249023,-6.383999824523926 17.67099952697754,-6.7230000495910645 17.47599983215332,-6.506999969482422 C17.32900047302246,-6.343999862670898 17.485000610351562,-5.890999794006348 17.58300018310547,-5.691999912261963z"/></g><g opacity="1" transform="matrix(1,0,0,1,0,0)"><path fill="rgb(25,52,93)" fill-opacity="1" d=" M18.045000076293945,-4.289999961853027 C18.091999053955078,-4.195000171661377 18.158000946044922,-4.099999904632568 18.246000289916992,-4.058000087738037 C18.37700080871582,-3.996000051498413 18.514999389648438,-4.081999778747559 18.55299949645996,-4.2170000076293945 C18.590999603271484,-4.3520002365112305 18.54800033569336,-4.51800012588501 18.475000381469727,-4.6579999923706055 C18.381999969482422,-4.835000038146973 18.11400032043457,-5.1020002365112305 17.961000442504883,-4.932000160217285 C17.844999313354492,-4.803999900817871 17.966999053955078,-4.447000026702881 18.045000076293945,-4.289999961853027z"/></g></g></g><g opacity="1" transform="matrix(1,0,0,1,0,0)"><g opacity="1" transform="matrix(1,0,0,1,0,0)"><path fill="rgb(0,0,0)" fill-opacity="1" d=" M-82.0999984741211,-29.4689998626709 C-82.04000091552734,-29.722000122070312 -81.947998046875,-29.965999603271484 -81.8290023803711,-30.16900062561035 C-81.12300109863281,-31.34600067138672 -79.65299987792969,-31.256999969482422 -79.00599670410156,-30.02199935913086 C-79.62300109863281,-31.22800064086914 -79.65299987792969,-32.9640007019043 -79.09400177001953,-34.19900131225586 C-78.68299865722656,-35.16999816894531 -77.91699981689453,-35.84600067138672 -77.12300109863281,-36.02299880981445 C-77.00499725341797,-36.053001403808594 -76.85900115966797,-36.051998138427734 -76.74099731445312,-36.051998138427734 C-76.6240005493164,-36.051998138427734 -76.50499725341797,-36.02299880981445 -76.38800048828125,-35.99300003051758 C-75.47599792480469,-35.81700134277344 -74.68199920654297,-34.904998779296875 -74.30000305175781,-33.757999420166016 C-74.71199798583984,-35.551998138427734 -74.3290023803711,-37.63999938964844 -73.41699981689453,-39.082000732421875 C-72.41699981689453,-40.66999816894531 -70.88700103759766,-41.435001373291016 -69.38700103759766,-41.49399948120117 C-67.70999908447266,-41.553001403808594 -66.00499725341797,-40.64099884033203 -64.88700103759766,-38.875999450683594 C-63.79899978637695,-37.111000061035156 -63.387001037597656,-34.49300003051758 -64.03399658203125,-32.316001892089844 C-63.44499969482422,-33.84600067138672 -62.59299850463867,-35.02299880981445 -61.44599914550781,-35.63999938964844 C-60.26900100708008,-36.22800064086914 -58.887001037597656,-35.99300003051758 -57.974998474121094,-34.875 C-57.03300094604492,-33.757999420166016 -56.680999755859375,-31.698999404907227 -57.29800033569336,-30.198999404907227 C-56.91600036621094,-31.139999389648438 -56.29800033569336,-31.875 -55.59199905395508,-32.257999420166016 C-55.03300094604492,-32.551998138427734 -54.44499969482422,-32.63999938964844 -53.856998443603516,-32.4640007019043 C-53.4739990234375,-32.34600067138672 -53.0629997253418,-32.08100128173828 -52.79800033569336,-31.698999404907227 C-52.59199905395508,-31.43400001525879 -52.44499969482422,-31.079999923706055 -52.415000915527344,-30.66900062561035 C-52.37900161743164,-30.233999252319336 -52.49399948120117,-29.839000701904297 -52.650001525878906,-29.4689998626709 C-52.650001525878906,-29.4689998626709 -82.0999984741211,-29.4689998626709 -82.0999984741211,-29.4689998626709z"/></g><g opacity="1" transform="matrix(1,0,0,1,0,0)"><g opacity="1" transform="matrix(1,0,0,1,0,0)"><path fill="rgb(52,184,253)" fill-opacity="1" d=" M-68.1729965209961,-29.202999114990234 C-68.12799835205078,-28.62299919128418 -67.81700134277344,-28.08799934387207 -67.45999908447266,-27.864999771118164 C-67.45999908447266,-27.864999771118164 -27.197999954223633,-27.195999145507812 -23.27400016784668,-27.195999145507812 C-18.235000610351562,-27.195999145507812 -14.133000373840332,-27.642000198364258 -14.133000373840332,-28.222000122070312 C-14.133000373840332,-28.57900047302246 -15.694000244140625,-28.84600067138672 -18.05699920654297,-29.069000244140625 C-17.52199935913086,-29.916000366210938 -16.98699951171875,-31.0310001373291 -17.121000289916992,-32.23500061035156 C-17.166000366210938,-32.948001861572266 -17.38800048828125,-33.571998596191406 -17.7450008392334,-34.018001556396484 C-18.235000610351562,-34.6870002746582 -18.90399932861328,-35.132999420166016 -19.572999954223633,-35.31100082397461 C-20.375999450683594,-35.534000396728516 -21.132999420166016,-35.534000396728516 -21.891000747680664,-35.266998291015625 C-22.11400032043457,-35.22200012207031 -22.336999893188477,-35.132999420166016 -22.559999465942383,-34.999000549316406 C-23.763999938964844,-34.33000183105469 -24.833999633789062,-33.0369987487793 -25.503000259399414,-31.43199920654297 C-24.433000564575195,-34.018001556396484 -25.05699920654297,-37.54100036621094 -26.66200065612793,-39.45800018310547 C-28.222000122070312,-41.375 -30.586000442504883,-41.82099914550781 -32.637001037597656,-40.79600143432617 C-34.5989990234375,-39.72600173950195 -36.07099914550781,-37.71900177001953 -37.051998138427734,-35.0880012512207 C-35.9370002746582,-38.83300018310547 -36.650001525878906,-43.33700180053711 -38.52299880981445,-46.36899948120117 C-40.439998626708984,-49.35599899291992 -43.382999420166016,-50.96200180053711 -46.23699951171875,-50.827999114990234 C-48.823001861572266,-50.73899841308594 -51.452999114990234,-49.44499969482422 -53.19200134277344,-46.680999755859375 C-54.75299835205078,-44.229000091552734 -55.42100143432617,-40.61800003051758 -54.70800018310547,-37.54100036621094 C-55.28799819946289,-39.41299819946289 -56.49100112915039,-40.8849983215332 -57.917999267578125,-41.2859992980957 C-58.051998138427734,-41.33100128173828 -58.14099884033203,-41.375 -58.275001525878906,-41.375 C-58.49800109863281,-41.4640007019043 -58.67599868774414,-41.50899887084961 -58.89899826049805,-41.50899887084961 C-59.07699966430664,-41.50899887084961 -59.345001220703125,-41.50899887084961 -59.52299880981445,-41.4640007019043 C-60.904998779296875,-41.152000427246094 -62.24300003051758,-39.99399948120117 -62.9119987487793,-38.29899978637695 C-63.893001556396484,-36.202999114990234 -63.847999572753906,-33.21500015258789 -62.77799987792969,-31.1200008392334 C-63.893001556396484,-33.2599983215332 -66.43399810791016,-33.39400100708008 -67.63800048828125,-31.38800048828125 C-67.99500274658203,-30.76300048828125 -68.30699920654297,-29.961000442504883 -68.1729965209961,-29.202999114990234z"/></g><g opacity="1" transform="matrix(1,0,0,1,0,0)"><path fill="rgb(25,52,93)" fill-opacity="1" d=" M-68.1729965209961,-29.202999114990234 C-68.12799835205078,-28.62299919128418 -67.81700134277344,-28.08799934387207 -67.45999908447266,-27.864999771118164 C-67.45999908447266,-27.864999771118164 -27.197999954223633,-27.195999145507812 -23.27400016784668,-27.195999145507812 C-18.235000610351562,-27.195999145507812 -14.133000373840332,-27.642000198364258 -14.133000373840332,-28.222000122070312 C-14.133000373840332,-28.57900047302246 -15.694000244140625,-28.84600067138672 -18.05699920654297,-29.069000244140625 C-17.52199935913086,-29.916000366210938 -16.98699951171875,-31.0310001373291 -17.121000289916992,-32.23500061035156 C-17.166000366210938,-32.948001861572266 -17.38800048828125,-33.571998596191406 -17.7450008392334,-34.018001556396484 C-18.235000610351562,-34.6870002746582 -18.90399932861328,-35.132999420166016 -19.572999954223633,-35.31100082397461 C-20.375999450683594,-35.534000396728516 -21.132999420166016,-35.534000396728516 -21.891000747680664,-35.266998291015625 C-20.820999145507812,-33.617000579833984 -21,-31.208999633789062 -22.381999969482422,-29.82699966430664 C-23.94300079345703,-28.267000198364258 -26.797000885009766,-28.222000122070312 -28.402000427246094,-29.738000869750977 C-29.33799934387207,-30.673999786376953 -29.91699981689453,-32.10100173950195 -31.121000289916992,-32.63600158691406 C-32.54800033569336,-33.215999603271484 -34.10900115966797,-32.41299819946289 -35.49100112915039,-31.743999481201172 C-40.30699920654297,-29.381000518798828 -45.74599838256836,-28.399999618530273 -51.051998138427734,-28.84600067138672 C-53.72700119018555,-29.069000244140625 -56.5359992980957,-29.783000946044922 -58.36399841308594,-31.700000762939453 C-59.65700149536133,-33.082000732421875 -60.32699966430664,-35.04399871826172 -60.14799880981445,-36.91699981689453 C-59.970001220703125,-38.611000061035156 -59.16600036621094,-40.215999603271484 -57.917999267578125,-41.2859992980957 C-58.051998138427734,-41.33100128173828 -58.14099884033203,-41.375 -58.275001525878906,-41.375 C-58.49800109863281,-41.4640007019043 -58.67599868774414,-41.50899887084961 -58.89899826049805,-41.50899887084961 C-59.07699966430664,-41.50899887084961 -59.345001220703125,-41.50899887084961 -59.52299880981445,-41.4640007019043 C-60.904998779296875,-41.152000427246094 -62.24300003051758,-39.99399948120117 -62.9119987487793,-38.29899978637695 C-63.893001556396484,-36.202999114990234 -63.847999572753906,-33.21500015258789 -62.77799987792969,-31.1200008392334 C-63.893001556396484,-33.2599983215332 -66.43399810791016,-33.39400100708008 -67.63800048828125,-31.38800048828125 C-67.99500274658203,-30.76300048828125 -68.30699920654297,-29.961000442504883 -68.1729965209961,-29.202999114990234z"/></g></g><g opacity="1" transform="matrix(1,0,0,1,0,0)"><path fill="rgb(25,52,93)" fill-opacity="1" d=" M-54.03200149536133,-36.15599822998047 C-54.02299880981445,-35.97100067138672 -54.04399871826172,-35.77199935913086 -54.141998291015625,-35.63399887084961 C-54.28900146484375,-35.428001403808594 -54.57099914550781,-35.44200134277344 -54.74300003051758,-35.6150016784668 C-54.915000915527344,-35.78799819946289 -54.98899841308594,-36.07600021362305 -54.99599838256836,-36.35100173950195 C-55.00400161743164,-36.698001861572266 -54.823001861572266,-37.32899856567383 -54.44599914550781,-37.20000076293945 C-54.1619987487793,-37.10300064086914 -54.047000885009766,-36.45800018310547 -54.03200149536133,-36.15599822998047z"/></g><g opacity="1" transform="matrix(1,0,0,1,0,0)"><path fill="rgb(25,52,93)" fill-opacity="1" d=" M-53.652000427246094,-34.17399978637695 C-53.64500045776367,-34.02899932861328 -53.6619987487793,-33.87200164794922 -53.73899841308594,-33.76300048828125 C-53.854000091552734,-33.60100173950195 -54.07600021362305,-33.61199951171875 -54.21099853515625,-33.74800109863281 C-54.34700012207031,-33.88399887084961 -54.40599822998047,-34.111000061035156 -54.4109992980957,-34.327999114990234 C-54.417999267578125,-34.60100173950195 -54.27399826049805,-35.0989990234375 -53.97800064086914,-34.99700164794922 C-53.75400161743164,-34.91999816894531 -53.66299819946289,-34.41299819946289 -53.652000427246094,-34.17399978637695z"/></g><g opacity="1" transform="matrix(1,0,0,1,0,0)"><g opacity="1" transform="matrix(1,0,0,1,0,0)"><path fill="rgb(25,52,93)" fill-opacity="1" d=" M-37.106998443603516,-34.03799819946289 C-37.16699981689453,-33.91699981689453 -37.25,-33.797000885009766 -37.36199951171875,-33.74399948120117 C-37.52899932861328,-33.665000915527344 -37.70399856567383,-33.77299880981445 -37.75199890136719,-33.94499969482422 C-37.79999923706055,-34.117000579833984 -37.74599838256836,-34.32699966430664 -37.65299987792969,-34.505001068115234 C-37.53499984741211,-34.72999954223633 -37.194000244140625,-35.069000244140625 -36.999000549316406,-34.85300064086914 C-36.85200119018555,-34.689998626708984 -37.00899887084961,-34.23699951171875 -37.106998443603516,-34.03799819946289z"/></g><g opacity="1" transform="matrix(1,0,0,1,0,0)"><path fill="rgb(25,52,93)" fill-opacity="1" d=" M-37.56800079345703,-32.63600158691406 C-37.6150016784668,-32.54100036621094 -37.680999755859375,-32.446998596191406 -37.76900100708008,-32.404998779296875 C-37.9010009765625,-32.34299850463867 -38.03799819946289,-32.42900085449219 -38.07600021362305,-32.56399917602539 C-38.11399841308594,-32.69900131225586 -38.071998596191406,-32.86399841308594 -37.99800109863281,-33.00400161743164 C-37.904998779296875,-33.180999755859375 -37.63600158691406,-33.448001861572266 -37.483001708984375,-33.27799987792969 C-37.367000579833984,-33.150001525878906 -37.4900016784668,-32.792999267578125 -37.56800079345703,-32.63600158691406z"/></g></g></g></g><g transform="matrix(1,0,0,1,175,175)" opacity="1" style="display: block;"><g opacity="1" transform="matrix(1,0,0,1,0,0)"><path fill="rgb(25,52,93)" fill-opacity="1" d=" M33.43586730957031,69.36255645751953 C33.64386749267578,70.61255645751953 29.644866943359375,71.52855682373047 26.144866943359375,71.945556640625 C24.769866943359375,72.070556640625 23.43586540222168,72.23755645751953 22.10286521911621,72.36255645751953 C14.102866172790527,73.23755645751953 9.483136177062988,73.8215560913086 0.9831364750862122,73.98855590820312 C-8.057863235473633,74.15555572509766 -12.764595031738281,73.61355590820312 -17.80559539794922,70.65555572509766 C-20.97259521484375,68.78055572509766 -17.68059539794922,66.53055572509766 -15.680595397949219,64.69755554199219 C-14.34759521484375,63.48955535888672 -10.456000328063965,60.805999755859375 -5.248000144958496,59.013999938964844 C-8.248000144958496,60.34700012207031 -5.8885955810546875,62.655555725097656 -8.680595397949219,63.405555725097656 C-11.263595581054688,64.07255554199219 -17.34759521484375,65.07255554199219 -17.18059539794922,66.53055572509766 C-17.05559539794922,67.48855590820312 -15.513595581054688,68.28055572509766 -13.805595397949219,68.61355590820312 C-12.055595397949219,68.98855590820312 -10.139595031738281,68.98855590820312 -8.264595031738281,69.03055572509766 C8.90140438079834,69.11355590820312 16.103866577148438,69.23755645751953 33.227867126464844,69.36255645751953 C33.227867126464844,69.36255645751953 33.43586730957031,69.36255645751953 33.43586730957031,69.36255645751953z"/></g><g opacity="1" transform="matrix(1,0,0,1,0,0)"><g opacity="1" transform="matrix(1,0,0,1,0,0)"><g opacity="1" transform="matrix(1,0,0,1,0,0)"><path fill="rgb(52,184,253)" fill-opacity="1" d=" M80.37086486816406,57.38568878173828 C78.1628646850586,58.09368896484375 75.62186431884766,58.636688232421875 72.82986450195312,59.094688415527344 C70.45486450195312,59.469688415527344 67.91386413574219,59.80268859863281 65.37186431884766,60.094688415527344 C64.24686431884766,60.219688415527344 63.16386413574219,60.30268859863281 62.03886413574219,60.38568878173828 C50.78986740112305,61.42768859863281 53.51786422729492,62.011688232421875 41.64386749267578,62.219688415527344 C38.602867126464844,62.219688415527344 35.394866943359375,62.219688415527344 32.811866760253906,62.67768859863281 C32.144866943359375,62.80268859863281 31.561866760253906,62.969688415527344 31.061866760253906,63.17768859863281 C31.019866943359375,63.17768859863281 31.019866943359375,63.219688415527344 30.97786521911621,63.219688415527344 C30.144866943359375,63.55268859863281 29.58300018310547,64.05500030517578 29.45800018310547,64.47200012207031 C29.291000366210938,64.80500030517578 25.666000366210938,65.13899993896484 26.08300018310547,65.47200012207031 C28.166000366210938,67.05500030517578 31.60286521911621,67.23755645751953 33.18586730957031,68.86255645751953 C33.352867126464844,69.02955627441406 33.43586730957031,69.195556640625 33.43586730957031,69.36255645751953 C33.64386749267578,70.61255645751953 29.644866943359375,71.52855682373047 26.144866943359375,71.945556640625 C24.769866943359375,72.070556640625 23.43586540222168,72.23755645751953 22.10286521911621,72.36255645751953 C14.102866172790527,73.23755645751953 9.483136177062988,73.8215560913086 0.9831364750862122,73.98855590820312 C-8.057863235473633,74.15555572509766 -12.764595031738281,73.61355590820312 -17.80559539794922,70.65555572509766 C-20.97259521484375,68.78055572509766 -17.68059539794922,66.53055572509766 -15.680595397949219,64.69755554199219 C-14.34759521484375,63.48955535888672 -10.456000328063965,60.805999755859375 -5.248000144958496,59.013999938964844 C-5.039999961853027,58.888999938964844 -4.830999851226807,58.805999755859375 -4.623000144958496,58.763999938964844 C-4.039999961853027,58.555999755859375 -3.5409998893737793,58.388999938964844 -3.124000072479248,58.180999755859375 C-3.124000072479248,58.180999755859375 -3.0820000171661377,58.180999755859375 -3.0820000171661377,58.180999755859375 C-1.8320000171661377,57.638999938964844 -1.3739999532699585,57.263999938964844 -2.3320000171661377,57.138999938964844 C-12.498000144958496,55.97200012207031 -21.159421920776367,57.055999755859375 -36.90842056274414,57.805999755859375 C-47.74142074584961,58.347999572753906 -46.53242111206055,58.72200012207031 -54.948421478271484,58.138999938964844 C-61.65642166137695,57.680999755859375 -68.69841766357422,57.055999755859375 -74.11441802978516,55.430999755859375 C-79.5304183959961,53.763999938964844 -82.61341857910156,50.76499938964844 -79.2804183959961,48.76499938964844 C-78.23841857910156,48.13999938964844 -76.78141784667969,47.68199920654297 -75.11441802978516,47.38999938964844 C-73.48941802978516,47.05699920654297 -71.57241821289062,46.847999572753906 -69.57241821289062,46.76499938964844 C-68.82241821289062,46.68199920654297 -68.03141784667969,46.63999938964844 -67.23941802978516,46.63999938964844 C-67.19741821289062,46.63999938964844 -67.11441802978516,46.597999572753906 -67.03141784667969,46.597999572753906 C-65.44841766357422,46.555999755859375 -63.823421478271484,46.55699920654297 -62.28142166137695,46.51499938964844 C-53.65642166137695,46.43199920654297 -52.57442092895508,46.3489990234375 -44.07442092895508,46.30699920654297 C-41.07442092895508,46.2239990234375 -42.32542037963867,46.2239990234375 -39.65842056274414,45.80699920654297 C-39.49142074584961,45.80699920654297 -39.36642074584961,45.80699920654297 -39.24142074584961,45.76499938964844 C-36.49142074584961,45.26499938964844 -41.78342056274414,44.2239990234375 -42.15842056274414,43.05699920654297 C-42.57542037963867,41.93199920654297 -39.11642074584961,40.93199920654297 -42.11642074584961,40.55699920654297 C-45.15842056274414,40.13999938964844 -38.99142074584961,40.18199920654297 -42.07442092895508,40.3489990234375 C-46.15742111206055,40.39099884033203 -50.240421295166016,40.597999572753906 -54.365421295166016,40.38999938964844 C-58.490421295166016,40.26499938964844 -62.823421478271484,39.51599884033203 -65.32341766357422,38.2239990234375 C-69.94841766357422,35.89099884033203 -66.36541748046875,32.5989990234375 -59.990421295166016,31.266000747680664 C-59.573421478271484,31.183000564575195 -59.11442184448242,31.099000930786133 -58.65642166137695,31.05699920654297 C-52.53142166137695,30.05699920654297 -45.115421295166016,30.183000564575195 -38.03242111206055,30.391000747680664 C-38.03242111206055,30.391000747680664 -37.94942092895508,30.724000930786133 -37.94942092895508,30.724000930786133 C-38.90742111206055,30.05699920654297 -39.15842056274414,29.308000564575195 -38.24142074584961,28.766000747680664 C-37.78342056274414,28.558000564575195 -37.19942092895508,28.349000930786133 -36.44942092895508,28.18199920654297 C-35.78242111206055,28.05699920654297 -34.95500183105469,28.014999389648438 -34.12200164794922,27.93199920654297 C-33.16400146484375,27.849000930786133 -32.12200164794922,27.849000930786133 -31.079999923706055,27.849000930786133 C-27.538999557495117,27.80699920654297 -30.20599937438965,27.80699920654297 -26.70599937438965,27.724000930786133 C-25.33099937438965,27.724000930786133 -23.99799919128418,27.724000930786133 -22.87299919128418,27.516000747680664 C-21.70599937438965,27.308000564575195 -20.746999740600586,26.891000747680664 -20.913999557495117,26.433000564575195 C-21.08099937438965,25.933000564575195 -14.163999557495117,25.516000747680664 -15.413999557495117,25.391000747680664 C-16.663999557495117,25.183000564575195 -17.95599937438965,25.266000747680664 -19.288999557495117,25.266000747680664 C-20.95599937438965,25.308000564575195 -22.663999557495117,25.391000747680664 -24.413999557495117,25.308000564575195 C-26.121999740600586,25.266000747680664 -27.913999557495117,24.974000930786133 -28.913999557495117,24.349000930786133 C-30.871999740600586,23.391000747680664 -29.329999923706055,22.016000747680664 -26.746999740600586,21.558000564575195 C-24.079999923706055,21.016000747680664 -20.74799919128418,21.058000564575195 -17.58099937438965,21.141000747680664 C-17.58099937438965,21.141000747680664 -11.788999557495117,21.349000930786133 -11.788999557495117,21.349000930786133 C-11.788999557495117,21.349000930786133 -11.498000144958496,21.349000930786133 -11.498000144958496,21.349000930786133 C-0.03999999910593033,21.55699920654297 -2.3329999446868896,20.933000564575195 9.166999816894531,21.058000564575195 C9.791999816894531,21.058000564575195 10.458000183105469,21.141000747680664 11.125,21.141000747680664 C12.75,21.141000747680664 14.33399486541748,21.225000381469727 15.875,21.433000564575195 C18.125,21.683000564575195 20.269866943359375,22.22068977355957 21.311866760253906,22.97068977355957 C22.436866760253906,23.72068977355957 22.061866760253906,24.7626895904541 20.269866943359375,25.179689407348633 C18.436866760253906,25.679689407348633 15.75,25.391000747680664 13.416999816894531,25.183000564575195 C11.125,25.058000564575195 13.875,25.058000564575195 12.916999816894531,25.808000564575195 C11.916999816894531,26.641000747680664 14.125,27.641000747680664 16.54199981689453,28.016000747680664 C19.04199981689453,28.391000747680664 21.686866760253906,28.34568977355957 24.269866943359375,28.2626895904541 C26.769866943359375,28.179689407348633 29.353866577148438,28.054689407348633 31.936866760253906,28.2626895904541 C34.519866943359375,28.47068977355957 34.602867126464844,29.09568977355957 35.394866943359375,30.053688049316406 C35.436866760253906,30.136688232421875 35.43586730957031,30.136688232421875 35.477867126464844,30.178688049316406 C37.43586730957031,30.178688049316406 32.47686767578125,30.179689407348633 34.39386749267578,30.2626895904541 C36.01886749267578,30.2626895904541 35.06086730957031,30.303688049316406 36.64386749267578,30.303688049316406 C40.51886749267578,30.386688232421875 44.39386749267578,30.59568977355957 48.10186767578125,31.0126895904541 C49.89386749267578,31.22068977355957 51.68486785888672,31.554689407348633 53.35186767578125,31.8876895904541 C56.60186767578125,32.63768768310547 59.43486785888672,33.594688415527344 61.18486785888672,34.761688232421875 C63.72686767578125,36.636688232421875 62.97586441040039,39.094688415527344 58.64286422729492,40.136688232421875 C54.14286422729492,41.219688415527344 47.81085968017578,40.553688049316406 42.18585968017578,40.136688232421875 C36.644859313964844,39.719688415527344 41.56086730957031,39.803688049316406 39.31086730957031,41.553688049316406 C36.852867126464844,43.553688049316406 39.03986740112305,46.011688232421875 44.872867584228516,46.928688049316406 C50.78886413574219,47.803688049316406 45.955867767333984,47.67768859863281 52.121864318847656,47.469688415527344 C58.204864501953125,47.30268859863281 64.37186431884766,46.969688415527344 70.57986450195312,47.511688232421875 C76.74586486816406,48.011688232421875 82.97599792480469,49.51499938964844 84.93399810791016,51.722999572753906 C86.76699829101562,53.847999572753906 84.411865234375,56.01068878173828 80.37086486816406,57.38568878173828z"/></g></g></g><g opacity="1" transform="matrix(1,0,0,1,0,0)"><path fill="rgb(25,52,93)" fill-opacity="1" d=" M-45.817420959472656,41.06100082397461 C-45.003421783447266,40.47100067138672 -48.865421295166016,39.05699920654297 -57.823421478271484,38.18199920654297 C-58.990421295166016,38.05699920654297 -60.19742202758789,37.93199920654297 -61.23942184448242,37.43199920654297 C-62.28142166137695,36.88999938964844 -63.15642166137695,35.89099884033203 -63.23942184448242,34.7239990234375 C-63.28142166137695,33.4739990234375 -62.40642166137695,32.38999938964844 -61.323421478271484,31.80699920654297 C-60.53142166137695,31.389999389648438 -59.448421478271484,31.389999389648438 -58.65642166137695,31.05699920654297 C-59.11442184448242,31.099000930786133 -59.573421478271484,31.183000564575195 -59.990421295166016,31.266000747680664 C-66.36541748046875,32.5989990234375 -69.94841766357422,35.89099884033203 -65.32341766357422,38.2239990234375 C-62.823421478271484,39.51599884033203 -58.490421295166016,40.26499938964844 -54.365421295166016,40.38999938964844 C-50.240421295166016,40.597999572753906 -46.15742111206055,40.39099884033203 -42.07442092895508,40.3489990234375 C-38.99142074584961,40.18199920654297 -45.15842056274414,40.13999938964844 -42.11642074584961,40.55699920654297 C-41.21942138671875,40.66899871826172 -46.61941909790039,40.849998474121094 -45.817420959472656,41.06100082397461z"/></g><g opacity="1" transform="matrix(1,0,0,1,0,0)"><path fill="rgb(25,52,93)" fill-opacity="1" d=" M80.37086486816406,57.38568878173828 C78.1628646850586,58.09368896484375 75.62186431884766,58.636688232421875 72.82986450195312,59.094688415527344 C70.45486450195312,59.469688415527344 67.91386413574219,59.80268859863281 65.37186431884766,60.094688415527344 C64.24686431884766,60.219688415527344 63.16386413574219,60.30268859863281 62.03886413574219,60.38568878173828 C71.62186431884766,58.80268859863281 71.24686431884766,55.17768859863281 71.62186431884766,54.05268859863281 C71.99686431884766,52.844688415527344 71.07986450195312,51.553688049316406 69.95486450195312,51.011688232421875 C68.82986450195312,50.469688415527344 67.49686431884766,50.511688232421875 66.24686431884766,50.511688232421875 C51.580867767333984,50.886688232421875 51.35186767578125,50.42768859863281 36.727867126464844,49.094688415527344 C35.394866943359375,48.969688415527344 34.01886749267578,48.844688415527344 32.81086730957031,48.219688415527344 C31.64386558532715,47.594688415527344 30.644866943359375,46.344688415527344 30.769866943359375,45.011688232421875 C30.936866760253906,43.094688415527344 33.01886749267578,42.053688049316406 34.81086730957031,41.428688049316406 C43.56086730957031,38.303688049316406 41.06086730957031,36.88768768310547 50.35186767578125,37.22068786621094 C51.89386749267578,37.303688049316406 54.10186767578125,37.303688049316406 54.85186767578125,35.636688232421875 C55.51886749267578,34.136688232421875 54.51886749267578,32.76268768310547 53.35186767578125,31.8876895904541 C56.60186767578125,32.63768768310547 59.43486785888672,33.594688415527344 61.18486785888672,34.761688232421875 C63.72686767578125,36.636688232421875 62.97586441040039,39.094688415527344 58.64286422729492,40.136688232421875 C54.14286422729492,41.219688415527344 47.81086730957031,40.553688049316406 42.18586730957031,40.136688232421875 C36.644866943359375,39.719688415527344 41.56086730957031,39.803688049316406 39.31086730957031,41.553688049316406 C36.852867126464844,43.553688049316406 39.03986740112305,46.011688232421875 44.872867584228516,46.928688049316406 C50.78886413574219,47.803688049316406 45.955867767333984,47.67768859863281 52.121864318847656,47.469688415527344 C58.204864501953125,47.30268859863281 64.37186431884766,46.969688415527344 70.57986450195312,47.511688232421875 C76.74586486816406,48.011688232421875 82.97599792480469,49.51499938964844 84.93399810791016,51.722999572753906 C86.76699829101562,53.847999572753906 84.411865234375,56.01068878173828 80.37086486816406,57.38568878173828z"/></g><g opacity="1" transform="matrix(1,0,0,1,0,0)"><path fill="rgb(25,52,93)" fill-opacity="1" d=" M-36.90842056274414,57.805999755859375 C-47.74142074584961,58.347999572753906 -46.53242111206055,58.72200012207031 -54.948421478271484,58.138999938964844 C-61.65642166137695,57.680999755859375 -68.69841766357422,57.055999755859375 -74.11441802978516,55.430999755859375 C-79.5304183959961,53.763999938964844 -82.61341857910156,50.76499938964844 -79.2804183959961,48.76499938964844 C-78.23841857910156,48.13999938964844 -76.78141784667969,47.68199920654297 -75.11441802978516,47.38999938964844 C-73.48941802978516,47.05699920654297 -71.57241821289062,46.847999572753906 -69.57241821289062,46.76499938964844 C-68.82241821289062,46.68199920654297 -68.03141784667969,46.63999938964844 -67.23941802978516,46.63999938964844 C-74.1554183959961,47.88999938964844 -75.6554183959961,47.430999755859375 -76.9054183959961,49.305999755859375 C-77.73841857910156,50.555999755859375 -76.19741821289062,52.305999755859375 -74.9054183959961,53.097999572753906 C-73.61341857910156,53.847999572753906 -72.03141784667969,54.05699920654297 -70.53141784667969,54.26499938964844 C-55.448421478271484,56.18199920654297 -52.11642074584961,57.347999572753906 -36.90842056274414,57.805999755859375z"/></g></g><g mask="url(#__lottie_element_19_1)" style="display: block;"><g transform="matrix(1,0,0,1,175.78211975097656,221.11941528320312)" opacity="1"><g opacity="1" transform="matrix(1,0,0,1,0,0)"><g opacity="1" transform="matrix(1,0,0,1,0,0)"><g opacity="1" transform="matrix(1,0,0,1,0,0)"><path fill="rgb(25,52,93)" fill-opacity="1" d=" M-28.20800018310547,47.97999954223633 C-29.166000366210938,48.32699966430664 -30.20400047302246,48.82099914550781 -30.243000030517578,49.529998779296875 C-30.290000915527344,50.38100051879883 -28.888999938964844,50.941001892089844 -27.631999969482422,51.19599914550781 C-23.780000686645508,51.97600173950195 -19.42099952697754,51.637001037597656 -15.96399974822998,50.290000915527344 C-14.890000343322754,49.87200164794922 -13.78499984741211,49.17399978637695 -14.057000160217285,48.382999420166016 C-14.24899959564209,47.823001861572266 -15.071000099182129,47.457000732421875 -15.859000205993652,47.19300079345703 C-17.562999725341797,46.62099838256836 -19.906999588012695,45.9640007019043 -21.836999893188477,46.23400115966797 C-24.033000946044922,46.54100036621094 -26.263999938964844,47.275001525878906 -28.20800018310547,47.97999954223633z"/></g><g opacity="1" transform="matrix(1,0,0,1,0,0)"><path fill="rgb(25,52,93)" fill-opacity="1" d=" M-7.989999771118164,46.64699935913086 C-6.164000034332275,46.74599838256836 -4.290999889373779,46.45800018310547 -2.7309999465942383,45.83700180053711 C1.3650000095367432,44.207000732421875 -6.271999835968018,42.84600067138672 -8.291999816894531,42.944000244140625 C-9.64900016784668,43.0099983215332 -10.562999725341797,43.48500061035156 -10.928999900817871,44.3390007019043 C-11.520999908447266,45.720001220703125 -10,46.53799819946289 -7.989999771118164,46.64699935913086z"/></g></g><g opacity="1" transform="matrix(1,0,0,1,0,0)"><g opacity="1" transform="matrix(1,0,0,1,0,0)"><path fill="rgb(25,52,93)" fill-opacity="1" d=" M2.0360000133514404,61.42100143432617 C1.0779999494552612,61.768001556396484 0.03999999910593033,62.26300048828125 0.0010000000474974513,62.97200012207031 C-0.04600000008940697,63.823001861572266 1.3559999465942383,64.38200378417969 2.61299991607666,64.63700103759766 C6.465000152587891,65.41699981689453 10.824000358581543,65.0790023803711 14.281000137329102,63.731998443603516 C15.354999542236328,63.31399917602539 16.458999633789062,62.6150016784668 16.187000274658203,61.82400131225586 C15.994999885559082,61.263999938964844 15.17300033569336,60.89799880981445 14.385000228881836,60.63399887084961 C12.680999755859375,60.0620002746582 10.338000297546387,59.40599822998047 8.407999992370605,59.67599868774414 C6.211999893188477,59.983001708984375 3.9800000190734863,60.715999603271484 2.0360000133514404,61.42100143432617z"/></g><g opacity="1" transform="matrix(1,0,0,1,0,0)"><path fill="rgb(25,52,93)" fill-opacity="1" d=" M22.2549991607666,60.0890007019043 C24.08099937438965,60.1879997253418 25.952999114990234,59.900001525878906 27.51300048828125,59.27899932861328 C31.608999252319336,57.64899826049805 23.972999572753906,56.2869987487793 21.952999114990234,56.3849983215332 C20.59600067138672,56.45100021362305 19.680999755859375,56.92599868774414 19.315000534057617,57.779998779296875 C18.722999572753906,59.1609992980957 20.2450008392334,59.97999954223633 22.2549991607666,60.0890007019043z"/></g></g></g><g opacity="1" transform="matrix(1,0,0,1,0,0)"><g opacity="1" transform="matrix(1,0,0,1,0,0)"><path fill="rgb(25,52,93)" fill-opacity="1" d=" M-18.615999221801758,31.065000534057617 C-19.573999404907227,31.41200065612793 -20.611000061035156,31.9060001373291 -20.649999618530273,32.6150016784668 C-20.69700050354004,33.465999603271484 -19.29599952697754,34.025001525878906 -18.038999557495117,34.279998779296875 C-14.187000274658203,35.060001373291016 -9.82800006866455,34.72200012207031 -6.370999813079834,33.375 C-5.296999931335449,32.957000732421875 -4.191999912261963,32.25899887084961 -4.464000225067139,31.468000411987305 C-4.656000137329102,30.908000946044922 -5.478000164031982,30.54199981689453 -6.265999794006348,30.277999877929688 C-7.96999979019165,29.70599937438965 -10.314000129699707,29.048999786376953 -12.244000434875488,29.319000244140625 C-14.4399995803833,29.625999450683594 -16.672000885009766,30.360000610351562 -18.615999221801758,31.065000534057617z"/></g><g opacity="1" transform="matrix(1,0,0,1,0,0)"><path fill="rgb(25,52,93)" fill-opacity="1" d=" M1.6030000448226929,29.73200035095215 C3.428999900817871,29.83099937438965 5.302000045776367,29.542999267578125 6.861999988555908,28.922000885009766 C10.958000183105469,27.29199981689453 3.321000099182129,25.930999755859375 1.3009999990463257,26.02899932861328 C-0.0560000017285347,26.094999313354492 -0.9700000286102295,26.56999969482422 -1.3359999656677246,27.423999786376953 C-1.9279999732971191,28.80500030517578 -0.40700000524520874,29.62299919128418 1.6030000448226929,29.73200035095215z"/></g></g><g opacity="1" transform="matrix(1,0,0,1,0,0)"><g opacity="1" transform="matrix(1,0,0,1,0,0)"><g opacity="1" transform="matrix(1,0,0,1,0,0)"><g opacity="1" transform="matrix(1,0,0,1,0,0)"><g opacity="1" transform="matrix(1,0,0,1,0,0)"><path fill="rgb(25,52,93)" fill-opacity="1" d=" M-28.20800018310547,-1.190999984741211 C-29.166000366210938,-0.843999981880188 -30.20400047302246,-0.3490000069141388 -30.243000030517578,0.36000001430511475 C-30.290000915527344,1.2109999656677246 -28.888999938964844,1.7699999809265137 -27.631999969482422,2.0250000953674316 C-23.780000686645508,2.805000066757202 -19.42099952697754,2.4660000801086426 -15.96399974822998,1.11899995803833 C-14.890000343322754,0.7009999752044678 -13.78499984741211,0.003000000026077032 -14.057000160217285,-0.7879999876022339 C-14.24899959564209,-1.3480000495910645 -15.071000099182129,-1.7139999866485596 -15.859000205993652,-1.9780000448226929 C-17.562999725341797,-2.549999952316284 -19.906999588012695,-3.2070000171661377 -21.836999893188477,-2.937000036239624 C-24.033000946044922,-2.630000114440918 -26.263999938964844,-1.8960000276565552 -28.20800018310547,-1.190999984741211z"/></g><g opacity="1" transform="matrix(1,0,0,1,0,0)"><path fill="rgb(25,52,93)" fill-opacity="1" d=" M-7.989999771118164,-2.5230000019073486 C-6.164000034332275,-2.4240000247955322 -4.290999889373779,-2.7130000591278076 -2.7309999465942383,-3.3340001106262207 C1.3650000095367432,-4.964000225067139 -6.271999835968018,-6.324999809265137 -8.291999816894531,-6.2270002365112305 C-9.64900016784668,-6.160999774932861 -10.562999725341797,-5.685999870300293 -10.928999900817871,-4.831999778747559 C-11.520999908447266,-3.4509999752044678 -10,-2.631999969482422 -7.989999771118164,-2.5230000019073486z"/></g></g><g opacity="1" transform="matrix(1,0,0,1,0,0)"><g opacity="1" transform="matrix(1,0,0,1,0,0)"><path fill="rgb(25,52,93)" fill-opacity="1" d=" M2.0360000133514404,12.25100040435791 C1.0779999494552612,12.597999572753906 0.03999999910593033,13.092000007629395 0.0010000000474974513,13.800999641418457 C-0.04600000008940697,14.652000427246094 1.3559999465942383,15.211000442504883 2.61299991607666,15.465999603271484 C6.465000152587891,16.246000289916992 10.824000358581543,15.907999992370605 14.281000137329102,14.560999870300293 C15.354999542236328,14.142999649047852 16.458999633789062,13.444999694824219 16.187000274658203,12.654000282287598 C15.994999885559082,12.093999862670898 15.17300033569336,11.727999687194824 14.385000228881836,11.46399974822998 C12.680999755859375,10.892000198364258 10.338000297546387,10.234999656677246 8.407999992370605,10.505000114440918 C6.211999893188477,10.812000274658203 3.9800000190734863,11.545999526977539 2.0360000133514404,12.25100040435791z"/></g><g opacity="1" transform="matrix(1,0,0,1,0,0)"><path fill="rgb(25,52,93)" fill-opacity="1" d=" M22.2549991607666,10.918000221252441 C24.08099937438965,11.017000198364258 25.952999114990234,10.729000091552734 27.51300048828125,10.107999801635742 C31.608999252319336,8.477999687194824 23.972999572753906,7.117000102996826 21.952999114990234,7.215000152587891 C20.59600067138672,7.281000137329102 19.680999755859375,7.75600004196167 19.315000534057617,8.609999656677246 C18.722999572753906,9.991000175476074 20.2450008392334,10.809000015258789 22.2549991607666,10.918000221252441z"/></g></g></g><g opacity="1" transform="matrix(1,0,0,1,0,0)"><g opacity="1" transform="matrix(1,0,0,1,0,0)"><path fill="rgb(25,52,93)" fill-opacity="1" d=" M-18.615999221801758,-18.106000900268555 C-19.573999404907227,-17.759000778198242 -20.611000061035156,-17.264999389648438 -20.649999618530273,-16.555999755859375 C-20.69700050354004,-15.704999923706055 -19.29599952697754,-15.145000457763672 -18.038999557495117,-14.890000343322754 C-14.187000274658203,-14.109999656677246 -9.82800006866455,-14.449000358581543 -6.370999813079834,-15.795999526977539 C-5.296999931335449,-16.214000701904297 -4.191999912261963,-16.91200065612793 -4.464000225067139,-17.702999114990234 C-4.656000137329102,-18.26300048828125 -5.478000164031982,-18.628999710083008 -6.265999794006348,-18.89299964904785 C-7.96999979019165,-19.46500015258789 -10.314000129699707,-20.121999740600586 -12.244000434875488,-19.851999282836914 C-14.4399995803833,-19.545000076293945 -16.672000885009766,-18.81100082397461 -18.615999221801758,-18.106000900268555z"/></g><g opacity="1" transform="matrix(1,0,0,1,0,0)"><path fill="rgb(25,52,93)" fill-opacity="1" d=" M1.6030000448226929,-19.437999725341797 C3.428999900817871,-19.339000701904297 5.302000045776367,-19.628000259399414 6.861999988555908,-20.249000549316406 C10.958000183105469,-21.878999710083008 3.321000099182129,-23.239999771118164 1.3009999990463257,-23.142000198364258 C-0.0560000017285347,-23.076000213623047 -0.9700000286102295,-22.60099983215332 -1.3359999656677246,-21.746999740600586 C-1.9279999732971191,-20.365999221801758 -0.40700000524520874,-19.547000885009766 1.6030000448226929,-19.437999725341797z"/></g></g></g><g opacity="1" transform="matrix(1,0,0,1,0,0)"><g opacity="1" transform="matrix(1,0,0,1,0,0)"><g opacity="1" transform="matrix(1,0,0,1,0,0)"><g opacity="1" transform="matrix(1,0,0,1,0,0)"><path fill="rgb(25,52,93)" fill-opacity="1" d=" M-32.96699905395508,-52.694000244140625 C-33.92499923706055,-52.34700012207031 -34.9630012512207,-51.85300064086914 -35.00199890136719,-51.14400100708008 C-35.04899978637695,-50.292999267578125 -33.64699935913086,-49.733001708984375 -32.38999938964844,-49.47800064086914 C-28.538000106811523,-48.698001861572266 -24.179000854492188,-49.0369987487793 -20.722000122070312,-50.38399887084961 C-19.648000717163086,-50.801998138427734 -18.542999267578125,-51.5 -18.815000534057617,-52.29100036621094 C-19.006999969482422,-52.85100173950195 -19.82900047302246,-53.21699905395508 -20.617000579833984,-53.48099899291992 C-22.320999145507812,-54.053001403808594 -24.665000915527344,-54.709999084472656 -26.594999313354492,-54.439998626708984 C-28.791000366210938,-54.132999420166016 -31.023000717163086,-53.39899826049805 -32.96699905395508,-52.694000244140625z"/></g><g opacity="1" transform="matrix(1,0,0,1,0,0)"><path fill="rgb(25,52,93)" fill-opacity="1" d=" M-12.748000144958496,-54.027000427246094 C-10.92199993133545,-53.928001403808594 -9.050000190734863,-54.215999603271484 -7.489999771118164,-54.83700180053711 C-3.3940000534057617,-56.46699905395508 -11.029999732971191,-57.827999114990234 -13.050000190734863,-57.72999954223633 C-14.406999588012695,-57.66400146484375 -15.321999549865723,-57.18899917602539 -15.687999725341797,-56.334999084472656 C-16.280000686645508,-54.95399856567383 -14.758000373840332,-54.13600158691406 -12.748000144958496,-54.027000427246094z"/></g></g><g opacity="1" transform="matrix(1,0,0,1,0,0)"><g opacity="1" transform="matrix(1,0,0,1,0,0)"><path fill="rgb(25,52,93)" fill-opacity="1" d=" M-2.7219998836517334,-39.25299835205078 C-3.680000066757202,-38.90599822998047 -4.7179999351501465,-38.4109992980957 -4.756999969482422,-37.70199966430664 C-4.803999900817871,-36.85100173950195 -3.4030001163482666,-36.29199981689453 -2.1459999084472656,-36.0369987487793 C1.7059999704360962,-35.25699996948242 6.065999984741211,-35.595001220703125 9.52299976348877,-36.94200134277344 C10.597000122070312,-37.36000061035156 11.701000213623047,-38.058998107910156 11.428999900817871,-38.849998474121094 C11.237000465393066,-39.40999984741211 10.414999961853027,-39.7760009765625 9.626999855041504,-40.040000915527344 C7.922999858856201,-40.61199951171875 5.579999923706055,-41.268001556396484 3.6500000953674316,-40.99800109863281 C1.4539999961853027,-40.691001892089844 -0.777999997138977,-39.95800018310547 -2.7219998836517334,-39.25299835205078z"/></g><g opacity="1" transform="matrix(1,0,0,1,0,0)"><path fill="rgb(25,52,93)" fill-opacity="1" d=" M17.496000289916992,-40.584999084472656 C19.32200050354004,-40.486000061035156 21.19499969482422,-40.77399826049805 22.7549991607666,-41.39500045776367 C26.85099983215332,-43.025001525878906 19.214000701904297,-44.387001037597656 17.194000244140625,-44.28900146484375 C15.836999893188477,-44.222999572753906 14.92300033569336,-43.74800109863281 14.557000160217285,-42.89400100708008 C13.96500015258789,-41.51300048828125 15.486000061035156,-40.694000244140625 17.496000289916992,-40.584999084472656z"/></g></g></g><g opacity="1" transform="matrix(1,0,0,1,0,0)"><g opacity="1" transform="matrix(1,0,0,1,0,0)"><path fill="rgb(25,52,93)" fill-opacity="1" d=" M-23.374000549316406,-69.60900115966797 C-24.332000732421875,-69.26200103759766 -25.3700008392334,-68.76799774169922 -25.409000396728516,-68.05899810791016 C-25.45599937438965,-67.20800018310547 -24.054000854492188,-66.64900207519531 -22.797000885009766,-66.39399719238281 C-18.94499969482422,-65.61399841308594 -14.586000442504883,-65.9520034790039 -11.128999710083008,-67.29900360107422 C-10.055000305175781,-67.71700286865234 -8.949999809265137,-68.41500091552734 -9.222000122070312,-69.20600128173828 C-9.413999557495117,-69.76599884033203 -10.236000061035156,-70.13200378417969 -11.02400016784668,-70.39600372314453 C-12.727999687194824,-70.96800231933594 -15.071999549865723,-71.625 -17.00200080871582,-71.3550033569336 C-19.197999954223633,-71.0479965209961 -21.43000030517578,-70.31400299072266 -23.374000549316406,-69.60900115966797z"/></g><g opacity="1" transform="matrix(1,0,0,1,0,0)"><path fill="rgb(25,52,93)" fill-opacity="1" d=" M-3.1549999713897705,-70.94200134277344 C-1.3289999961853027,-70.84300231933594 0.5429999828338623,-71.13099670410156 2.1029999256134033,-71.75199890136719 C6.198999881744385,-73.38200378417969 -1.437000036239624,-74.74299621582031 -3.4570000171661377,-74.6449966430664 C-4.814000129699707,-74.5790023803711 -5.729000091552734,-74.10399627685547 -6.09499979019165,-73.25 C-6.686999797821045,-71.86900329589844 -5.164999961853027,-71.0510025024414 -3.1549999713897705,-70.94200134277344z"/></g></g></g></g></g></g></g></svg>