<svg xmlns="http://www.w3.org/2000/svg" width="200" height="200" fill="none" viewBox="0 0 59 58" version="1.1" xmlns:xlink="http://www.w3.org/1999/xlink" xmlns:svgjs="http://svgjs.dev/svgjs"><path fill="url(&quot;#SvgjsLinearGradient1738&quot;)" d="M58.3 23.9c-13.4 1-13.9-.7-2.2-7.2-12.7 4.4-13.6 2.9-4-6.4-11.1 7.6-12.4 6.4-5.5-5.2-8.8 10.2-10.3 9.4-6.6-3.6-5.8 12.1-7.6 11.7-7.4-1.6-2.4 13-4.2 13.1-7.6.1 1.1 13.4-.6 13.9-7.2 2.2 4.5 12.7 3 13.6-6.4 4 7.6 11.1 6.4 12.3-5.1 5.5 10.2 8.7 9.4 10.3-3.5 6.7C15 24.2 14.6 25.8.9 25.6c13.4 2.5 13.5 4.2.4 7.5 13.4-1 13.9.7 2.2 7.2 12.7-4.4 13.6-2.9 4 6.4 11.1-7.6 12.4-6.4 5.5 5.2 8.8-10.2 10.3-9.4 6.6 3.6 5.8-12.1 7.6-11.7 7.4 1.6 2.4-13 4.2-13.1 7.6-.1-1.1-13.4.6-13.9 7.2-2.2-4.5-12.7-3-13.6 6.4-4-7.6-11.1-6.4-12.3 5.1-5.5-10.3-8.7-9.4-10.3 3.5-6.7-12.2-5.8-11.8-7.4 1.9-7.2-13.4-2.5-13.5-4.2-.4-7.5Z"></path><defs><linearGradient gradientTransform="rotate(0 0.5 0.5)" id="SvgjsLinearGradient1738"><stop stop-opacity=" 1" stop-color="rgba(105, 234, 203)" offset="0"></stop><stop stop-opacity=" 1" stop-color="rgba(241, 230, 84)" offset="0"></stop><stop stop-opacity=" 1" stop-color="rgba(241, 230, 84)" offset="0.1054998779296875"></stop><stop stop-opacity=" 1" stop-color="rgba(241, 230, 84)" offset="0.2404998779296875"></stop><stop stop-opacity=" 1" stop-color="rgba(241, 230, 84)" offset="0.4104998779296875"></stop><stop stop-opacity=" 1" stop-color="rgba(241, 230, 84)" offset="0.6254998779296875"></stop><stop stop-opacity=" 1" stop-color="rgba(234, 204, 248)" offset="0.7804998779296874"></stop><stop stop-opacity=" 1" stop-color="rgba(241, 230, 84)" offset="1"></stop></linearGradient></defs></svg>