<svg xmlns="http://www.w3.org/2000/svg" xml:space="preserve" id="weather-calendar" x="0" y="0" enable-background="new 0 0 70 70" version="1.1" viewBox="0 0 70 70">
  <g>
    <g>
      <g>
        <g>
          <g>
            <g>
              <g>
                <path fill="#e2e2e0" d="M3,35.05v22.49c0,5.11,4.14,9.25,9.25,9.25h45.51c5.1,0,9.24-4.14,9.24-9.25V35.05H3z"></path>
              </g>
              <g>
                <path fill="#efefed" d="M67,16.54v37c0,5.11-4.14,9.25-9.24,9.25H12.25C7.14,62.79,3,58.65,3,53.54v-37
								c0-5.11,4.14-9.25,9.25-9.25h45.51C62.86,7.29,67,11.43,67,16.54z"></path>
              </g>
              <g>
                <path fill="#495e66" d="M67,20.96v-4.42c0-5.11-4.14-9.25-9.24-9.25H12.25C7.14,7.29,3,11.43,3,16.54v4.42H67z"></path>
              </g>
              <g>
                <g>
                  <path fill="#54e28e" d="M19.44,5.9v5.53c0,1.49-1.21,2.7-2.69,2.7c-1.49,0-2.69-1.21-2.69-2.7V5.9c0-1.49,1.2-2.69,2.69-2.69
									c0.74,0,1.41,0.3,1.9,0.78S19.44,5.16,19.44,5.9z"></path>
                </g>
                <g>
                  <path fill="#54e28e" d="M31.61,5.9v5.53c0,1.49-1.21,2.7-2.69,2.7c-1.49,0-2.69-1.21-2.69-2.7V5.9c0-1.49,1.2-2.69,2.69-2.69
									c0.74,0,1.41,0.3,1.9,0.78C31.3,4.48,31.61,5.16,31.61,5.9z"></path>
                </g>
                <g>
                  <path fill="#54e28e" d="M43.77,5.9v5.53c0,1.49-1.21,2.7-2.69,2.7c-1.49,0-2.69-1.21-2.69-2.7V5.9c0-1.49,1.2-2.69,2.69-2.69
									c0.74,0,1.41,0.3,1.9,0.78C43.47,4.48,43.77,5.16,43.77,5.9z"></path>
                </g>
                <g>
                  <path fill="#54e28e" d="M55.94,5.9v5.53c0,1.49-1.21,2.7-2.69,2.7c-1.49,0-2.69-1.21-2.69-2.7V5.9c0-1.49,1.2-2.69,2.69-2.69
									c0.74,0,1.41,0.3,1.9,0.78S55.94,5.16,55.94,5.9z"></path>
                </g>
              </g>
            </g>
          </g>
        </g>
      </g>
    </g>
    <g>
      <g>
        <g>
          <g>
            <path fill="#fbe063" d="M49.51,36.9c0,4.61-3.73,8.34-8.33,8.34c-4.61,0-8.34-3.73-8.34-8.34s3.73-8.34,8.34-8.34
						C45.78,28.56,49.51,32.29,49.51,36.9z"></path>
          </g>
          <g>
            <g>
              <path fill="#8f90fb" d="M51.59,50.15c0,3.92-3.18,7.09-7.09,7.09c-3.92,0-18.87,0-22.59,0c-3.92,0-7.1-3.18-7.1-7.09
							c0-3.05,1.93-5.66,4.63-6.67c-0.12-0.57-0.17-1.16-0.17-1.77c0-5.01,4.06-9.07,9.07-9.07c3.45,0,6.44,1.93,7.97,4.76
							c0.87-0.53,1.89-0.83,2.98-0.83c3.16,0,5.72,2.57,5.72,5.74c0,0.25-0.02,0.5-0.05,0.75C48.66,43.3,51.59,46.38,51.59,50.15z"></path>
            </g>
          </g>
          <g>
            <g>
              <path fill="#f9a41a" d="M41.18,26.58c-0.28,0-0.5-0.22-0.5-0.5V25.1c0-0.28,0.22-0.5,0.5-0.5s0.5,0.22,0.5,0.5v0.98
							C41.68,26.36,41.45,26.58,41.18,26.58z"></path>
            </g>
          </g>
          <g>
            <g>
              <path fill="#f9a41a" d="M32.83,29.05c-0.13,0-0.26-0.05-0.35-0.15l-0.69-0.69c-0.2-0.2-0.2-0.51,0-0.71c0.2-0.2,0.51-0.2,0.71,0
							l0.69,0.69c0.2,0.2,0.2,0.51,0,0.71C33.08,29,32.95,29.05,32.83,29.05z"></path>
            </g>
          </g>
          <g>
            <g>
              <path fill="#f9a41a" d="M53.39,37.4h-0.98c-0.28,0-0.5-0.22-0.5-0.5s0.22-0.5,0.5-0.5h0.98c0.28,0,0.5,0.22,0.5,0.5
							S53.67,37.4,53.39,37.4z"></path>
            </g>
          </g>
          <g>
            <g>
              <path fill="#f9a41a" d="M49.53,29.05c-0.13,0-0.26-0.05-0.35-0.15c-0.2-0.2-0.2-0.51,0-0.71l0.69-0.69c0.2-0.2,0.51-0.2,0.71,0
							c0.2,0.2,0.2,0.51,0,0.71l-0.69,0.69C49.78,29,49.65,29.05,49.53,29.05z"></path>
            </g>
          </g>
        </g>
      </g>
    </g>
  </g>
</svg>
